<svg enable-background="new 0 0 2795 2628" viewBox="0 0 2795 2628" xmlns="http://www.w3.org/2000/svg"><path d="m0 0h2795v2628h-2795z" fill="#151e39"/><path d="m795.5 321.2-481.4 412.4" fill="none" stroke="#1bacfb" stroke-miterlimit="10" stroke-width="6"/><path d="m295.9 712.3 35.7 41.8" fill="none" stroke="#1bacfb" stroke-miterlimit="10" stroke-width="6"/><path d="m777.4 299.9 35.7 41.8" fill="none" stroke="#1bacfb" stroke-miterlimit="10" stroke-width="6"/><path d="m2273.3 1493.8-1138.4-1282" fill="none" stroke="#1bacfb" stroke-miterlimit="10" stroke-width="6"/><path d="m1166.6 181.5-62.3 59.4" fill="none" stroke="#1bacfb" stroke-miterlimit="10" stroke-width="6"/><path d="m1376.6 419.5-62.3 59.4" fill="none" stroke="#1bacfb" stroke-miterlimit="10" stroke-width="6"/><path d="m2305 1463.5-62.2 59.5" fill="none" stroke="#1bacfb" stroke-miterlimit="10" stroke-width="6"/><path d="m1325.3 2304.8-907.4-1025" fill="none" stroke="#1bacfb" stroke-miterlimit="10" stroke-width="6"/><path d="m449.6 1249.5-62.3 59.4" fill="none" stroke="#1bacfb" stroke-miterlimit="10" stroke-width="6"/><path d="m1357 2274.5-62.2 59.5" fill="none" stroke="#1bacfb" stroke-miterlimit="10" stroke-width="6"/><path d="m1029 1905.5-62.2 59.5" fill="none" stroke="#1bacfb" stroke-miterlimit="10" stroke-width="6"/><path d="m2273.8 1631-810.1 686.1" fill="none" stroke="#1bacfb" stroke-miterlimit="10" stroke-width="6"/><path d="m1446 2298.4 34.8 36.6" fill="none" stroke="#1bacfb" stroke-miterlimit="10" stroke-width="6"/><path d="m2256.1 1612.4 34.8 36.6" fill="none" stroke="#1bacfb" stroke-miterlimit="10" stroke-width="6"/><g fill="#1bacfb"><path d="m1800.7 531-9.9-24.8v35.6h-9.7v-50.4h14.1l11 28.6 11.2-28.6h13.5v50.4h-9.9v-35.6l-9.6 24.8z"/><path d="m1871.6 528.1h-24.6c.5 3.7 3.4 6.6 7.6 6.6 2.7 0 5.3-1.2 6.6-3.4l9.7 1c-3 7.1-9.1 10.4-16.5 10.4-9.9 0-17.3-7.3-17.3-17.4s7.3-17.4 17.1-17.4c9.1 0 17.3 5.9 17.3 19.7v.5zm-24.7-6.3h14.8c-.5-3.3-3.3-6-7.3-6s-6.8 2.5-7.5 6z"/><path d="m1884.4 525.4c0 5.2 3.4 9 8.3 9 3.5 0 6-1.9 7.3-5l8.8 2.7c-2.2 6.6-8.6 10.7-16.1 10.7-9.8 0-17.6-7.3-17.6-17.4s7.8-17.4 17.6-17.4c7.5 0 14 4.2 16.1 10.7l-8.8 2.7c-1.2-3-3.8-5-7.3-5-4.9 0-8.3 3.8-8.3 9z"/><path d="m1921.6 525.4c0 5.2 3.4 9 8.3 9 3.5 0 6-1.9 7.3-5l8.8 2.7c-2.2 6.6-8.6 10.7-16.1 10.7-9.8 0-17.6-7.3-17.6-17.4s7.8-17.4 17.6-17.4c7.5 0 14 4.2 16.1 10.7l-8.8 2.7c-1.2-3-3.8-5-7.3-5-4.9 0-8.3 3.8-8.3 9z"/><path d="m1969.8 519.9c0-2.4-1.9-3.9-5.5-3.9-3.3 0-7.5 1.7-9.9 3.1l-3.7-7.1s6.1-4 14.1-4c7.5 0 14.3 3.5 14.3 12.2v21.7h-9.4v-3.1c-1.7 2.6-5.5 4-9.2 4-7 0-11.5-5-11.5-10.4 0-6.3 4.6-10.2 12-10.2h6.5c1.6 0 2.3-.7 2.3-1.9zm0 10.1v-2.4c-.6.6-1.6.7-2.9.7h-3.5c-3 0-4.7 1.3-4.7 3.6 0 2.2 1.8 3.9 4.7 3.9 3.3.1 6.4-1.7 6.4-5.8z"/><path d="m1992.5 530.2c3.6 0 6.5 2.7 6.5 6.3 0 1-.4 2.7-.9 3.6l-5.7 10.6h-7.6l4.1-9.1c-1.7-1.1-2.7-3-2.7-5.1.1-3.5 2.8-6.3 6.3-6.3z"/><path d="m2048 504.8c-3.1-3-7.1-5.2-10.7-5.2-3.3 0-6.3 1.7-6.3 4.8 0 2.3 1.4 4.1 5.5 6l4.2 1.9c8 3.7 12.8 7.9 12.8 15.5s-6.4 14.9-17.5 14.9c-7.6 0-13.3-3-18.1-7.6l5.5-7.5c3.7 3.8 8.5 6 12.3 6 4.3 0 7-2.4 7-5.5 0-3.5-3.1-5.4-7.9-7.6l-3.5-1.7c-6.8-3.2-11-7.8-11-14.1 0-8.9 7.9-14.2 16.8-14.2 5.8 0 11.8 2.9 16.6 7.1z"/><path d="m2078 519.9c0-2.4-1.9-3.9-5.5-3.9-3.3 0-7.5 1.7-9.9 3.1l-3.7-7.1s6.1-4 14.1-4c7.5 0 14.3 3.5 14.3 12.2v21.7h-9.4v-3.1c-1.7 2.6-5.5 4-9.2 4-7 0-11.5-5-11.5-10.4 0-6.3 4.6-10.2 12-10.2h6.5c1.6 0 2.3-.7 2.3-1.9zm0 10.1v-2.4c-.6.6-1.6.7-2.9.7h-3.5c-3 0-4.7 1.3-4.7 3.6 0 2.2 1.8 3.9 4.7 3.9 3.4.1 6.4-1.7 6.4-5.8z"/><path d="m2094.5 529.7v-20.9h9.4v19.2c0 4.5 3 6.3 6.3 6.3 3.4 0 6.3-1.8 6.3-6.3v-19.2h9.3v20.9c0 6.9-5.5 13-15.6 13-10 0-15.7-6-15.7-13z"/><path d="m2157.7 537.7c-1.7 2.7-5.5 5-10.3 5-9.1 0-16-7.3-16-17.4s6.8-17.4 15.9-17.4c5 0 8.9 2.3 10.5 5.1 0-1.1-.1-3.8-.1-6.3v-15.4h9.4v50.4h-9.4zm-16.6-12.3c0 5 3.5 9.1 8.4 9.1 5 0 8.4-4 8.4-9.1s-3.5-9-8.4-9c-5 0-8.4 3.8-8.4 9z"/><path d="m2186.4 541.8h-9.4v-25.1h-4.6v-7.9h14zm-5.1-50.4c3.4 0 6 2.7 6 6 0 3.4-2.7 6-6 6s-6-2.6-6-6c0-3.2 2.7-6 6-6z"/><path d="m2248.6 541.8h-10.8l-4.3-13.8h-15.2l-4 13.8h-10.5l16.3-50.4h12zm-22.7-39.6h-.1l-5.1 17.3h10.3z"/><path d="m2273.4 518.1h-4c-4.8 0-6.9 2.2-6.9 8v15.8h-9.4v-33h9.1v5.3c1.3-3.5 4.5-5.7 8.6-5.7.9 0 1.7.1 2.6.3z"/><path d="m2296.6 519.9c0-2.4-1.9-3.9-5.5-3.9-3.3 0-7.5 1.7-9.9 3.1l-3.7-7.1s6.1-4 14.1-4c7.5 0 14.3 3.5 14.3 12.2v21.7h-9.4v-3.1c-1.7 2.6-5.5 4-9.2 4-7 0-11.5-5-11.5-10.4 0-6.3 4.6-10.2 12-10.2h6.5c1.6 0 2.3-.7 2.3-1.9zm0 10.1v-2.4c-.6.6-1.6.7-2.9.7h-3.5c-3 0-4.7 1.3-4.7 3.6 0 2.2 1.8 3.9 4.7 3.9 3.4.1 6.4-1.7 6.4-5.8z"/><path d="m2323.1 541.8h-9.4v-50.4h9.4v16.3c0 2.2-.1 4.5-.1 5.4 1.6-2.8 5.5-5.1 10.4-5.1 9.1 0 16 7.3 16 17.4s-7 17.4-16.1 17.4c-4.7 0-8.6-2.2-10.2-5zm-.2-16.4c0 5 3.5 9.1 8.4 9.1s8.4-4 8.4-9.1-3.5-9-8.4-9-8.4 3.8-8.4 9z"/><path d="m2366.7 541.8h-9.4v-25.1h-4.6v-7.9h14zm-5.1-50.4c3.4 0 6 2.7 6 6 0 3.4-2.7 6-6 6s-6-2.6-6-6c0-3.2 2.7-6 6-6z"/><path d="m2393.1 519.9c0-2.4-1.9-3.9-5.5-3.9-3.3 0-7.5 1.7-9.9 3.1l-3.7-7.1s6.1-4 14.1-4c7.5 0 14.3 3.5 14.3 12.2v21.7h-9.4v-3.1c-1.7 2.6-5.5 4-9.2 4-7 0-11.5-5-11.5-10.4 0-6.3 4.6-10.2 12-10.2h6.5c1.6 0 2.3-.7 2.3-1.9zm0 10.1v-2.4c-.6.6-1.6.7-2.9.7h-3.5c-3 0-4.7 1.3-4.7 3.6 0 2.2 1.8 3.9 4.7 3.9 3.3.1 6.4-1.7 6.4-5.8z"/><path d="m1770.5 198.1c0-30 23-51.4 52.3-51.4 22.4 0 42.9 13.6 48.7 37.1h-21.7c-3.7-11.8-13.8-18.9-27-18.9-18.7 0-31.7 14.2-31.7 33.2 0 20.7 13.8 33.2 31.5 33.2 13.9 0 23.3-8.2 26-16.6h-21.7v-16.2h42.2v49.3h-16v-13.8c-3.8 5.8-15.1 15.5-32.1 15.5-28.6 0-50.5-21.4-50.5-51.4z"/><path d="m1923.8 201h-7.8c-9.4 0-13.6 4.4-13.6 15.8v31.1h-18.5v-65h17.9v10.4c2.6-7 8.8-11.2 16.9-11.2 1.7 0 3.4.1 5.1.6z"/><path d="m1997.2 220.7h-48.4c1 7.2 6.7 13.1 14.9 13.1 5.4 0 10.5-2.3 13.1-6.7l19.2 2c-5.8 13.9-18 20.4-32.5 20.4-19.5 0-34.1-14.3-34.1-34.2s14.3-34.2 33.8-34.2c17.9 0 34.1 11.6 34.1 38.9v.7zm-48.9-12.3h29.1c-1-6.5-6.5-11.9-14.3-11.9-7.8-.1-13.4 4.9-14.8 11.9z"/><path d="m2044.2 204.5c0-4.7-3.7-7.7-10.8-7.7-6.5 0-14.8 3.3-19.6 6.1l-7.2-13.9s12.1-8 27.8-8c14.8 0 28.3 6.8 28.3 24v42.7h-18.5v-6.1c-3.4 5.1-10.8 7.8-18.2 7.8-13.8 0-22.7-9.8-22.7-20.4 0-12.4 9.1-20 23.6-20h12.8c3.1 0 4.5-1.4 4.5-3.8zm0 20.1v-4.7c-1.1 1.1-3.1 1.4-5.7 1.4h-7c-5.8 0-9.2 2.6-9.2 7.1 0 4.4 3.5 7.7 9.2 7.7 6.7 0 12.7-3.5 12.7-11.5z"/><path d="m2101.1 158.1v24.7h14.1v15.6h-14.1v29.4c0 4.1 3.3 4.7 6.1 4.7 4.7 0 8.5-.4 8.5-.4v15.8s-8.9.9-14.3.9c-9.2 0-18.7-1.6-18.7-14.6v-35.6h-10.2v-15.6h10.2v-24.7h18.4z"/><path d="m2197.5 226.5-19.6-49v70.3h-19.2v-99.4h27.8l21.7 56.4 22.2-56.4h26.6v99.4h-19.6v-70.3l-19 49z"/><path d="m2269.5 215.3c0-19.9 15.5-34.2 34.8-34.2s34.8 14.3 34.8 34.2-15.5 34.2-34.8 34.2-34.8-14.3-34.8-34.2zm18.5 0c0 10.1 6.7 17.8 16.3 17.8 9.5 0 16.2-7.7 16.2-17.8 0-10.2-6.7-17.8-16.2-17.8-9.6.1-16.3 7.6-16.3 17.8z"/><path d="m2389.2 202.7c-5.3-5.1-11.8-6.7-16-6.7-4.8 0-6.5 2.4-6.5 4.4 0 2.3 1.4 3.8 4.8 5l10.8 3.4c13.3 4.4 17.9 11.6 17.9 20.2 0 9.5-8.1 20.6-25.8 20.6-14.3 0-23.3-5.5-28.7-10.2l9.8-12.8c4.7 4.4 13.1 8.1 19.2 8.1 4.4 0 7.1-2.3 7.1-4.8 0-3.3-2.1-4.7-7.4-6.2l-11.1-3.3c-10.5-3.4-15.1-10.5-15.1-19 0-10.7 9.7-20.2 25.3-20.2 8.5 0 18.6 2.6 26.3 9.7z"/><path d="m2459.8 239.6c-3.3 5.5-10.9 9.9-20.3 9.9-17.9 0-31.5-14.3-31.5-34.2s13.5-34.2 31.4-34.2c9.9 0 17.5 4.5 20.7 10.1 0-.7-.3-2-.3-5.4v-3h18.5v89.9h-18.5zm-32.8-24.3c0 9.9 6.8 17.9 16.6 17.9s16.6-8 16.6-17.9c0-10.1-6.8-17.8-16.6-17.8-9.8.1-16.6 7.7-16.6 17.8z"/><path d="m2493.2 224v-41.2h18.5v37.8c0 8.9 6 12.5 12.5 12.5 6.7 0 12.5-3.5 12.5-12.5v-37.8h18.3v41.2c0 13.6-10.8 25.6-30.8 25.6-19.9-.1-31-12-31-25.6z"/><path d="m2633.6 220.7h-48.4c1 7.2 6.7 13.1 14.9 13.1 5.4 0 10.5-2.3 13.1-6.7l19.2 2c-5.8 13.9-18 20.4-32.5 20.4-19.5 0-34.1-14.3-34.1-34.2s14.3-34.2 33.8-34.2c17.9 0 34.1 11.6 34.1 38.9v.7zm-48.8-12.3h29.1c-1-6.5-6.5-11.9-14.3-11.9s-13.4 4.9-14.8 11.9z"/><path d="m1769.8 385.7c0-19.9 15.5-34.2 34.8-34.2s34.8 14.3 34.8 34.2-15.5 34.2-34.8 34.2-34.8-14.3-34.8-34.2zm18.5 0c0 10.1 6.7 17.8 16.3 17.8 9.5 0 16.2-7.7 16.2-17.8 0-10.2-6.7-17.8-16.2-17.8-9.6.1-16.3 7.6-16.3 17.8z"/><path d="m1855.6 334.7c0-12.8 8.5-17.2 18.5-17.2 5 0 13.5.9 13.5.9v16.9s-5.7-.7-7.7-.7c-3.6 0-5.8.9-5.8 5.4v13.2h12.5v15.6h-12.5v49.4h-18.5v-49.4h-10.2v-15.6h10.2z"/><path d="m1964.1 396.9-19.6-49v70.3h-19.2v-99.4h27.8l21.7 56.4 22.2-56.4h26.6v99.4h-19.6v-70.2l-19 49h-20.9z"/><path d="m2104 391.1h-48.4c1 7.2 6.7 13.1 14.9 13.1 5.4 0 10.5-2.3 13.1-6.7l19.2 2c-5.8 13.9-18 20.4-32.5 20.4-19.5 0-34.1-14.3-34.1-34.2s14.3-34.2 33.8-34.2c17.9 0 34.1 11.6 34.1 38.9v.7zm-48.9-12.3h29.1c-1-6.5-6.5-11.9-14.3-11.9-7.8-.1-13.4 4.9-14.8 11.9z"/><path d="m2129.2 385.7c0 10.2 6.7 17.8 16.3 17.8 6.8 0 11.9-3.8 14.3-9.9l17.3 5.4c-4.3 12.9-17 21-31.8 21-19.3 0-34.6-14.3-34.6-34.2s15.3-34.2 34.6-34.2c14.8 0 27.5 8.2 31.8 21.2l-17.3 5.3c-2.4-6-7.5-9.9-14.3-9.9-9.6-.2-16.3 7.3-16.3 17.5z"/><path d="m2202.5 385.7c0 10.2 6.7 17.8 16.3 17.8 6.8 0 11.9-3.8 14.3-9.9l17.3 5.4c-4.3 12.9-17 21-31.8 21-19.3 0-34.6-14.3-34.6-34.2s15.3-34.2 34.6-34.2c14.8 0 27.5 8.2 31.8 21.2l-17.3 5.3c-2.4-6-7.5-9.9-14.3-9.9-9.6-.2-16.3 7.3-16.3 17.5z"/><path d="m2297.5 374.9c0-4.7-3.7-7.7-10.8-7.7-6.5 0-14.8 3.3-19.6 6.1l-7.2-13.9s12.1-8 27.8-8c14.8 0 28.3 6.8 28.3 24v42.7h-18.5v-6.1c-3.4 5.1-10.8 7.8-18.2 7.8-13.8 0-22.7-9.8-22.7-20.4 0-12.4 9.1-20 23.6-20h12.8c3.1 0 4.5-1.4 4.5-3.8zm0 20.1v-4.7c-1.1 1.1-3.1 1.4-5.7 1.4h-7c-5.8 0-9.2 2.6-9.2 7.1 0 4.4 3.5 7.7 9.2 7.7 6.7 0 12.7-3.5 12.7-11.5z"/><path d="m1866.3 2102.5s10.4-9.2 18.2-16.5c7.7-7.3 9.4-11.8 9.4-16.8 0-4.2-2.9-7.9-8.2-7.9-4.7 0-8.2 2.8-8.2 7.3 0 1.6.4 3.6 1.6 6.4l-11.3 2c-1.8-3.6-2.3-6.5-2.3-9.5 0-8.6 7.2-17.1 20.3-17.1 13.5 0 20.6 8.8 20.6 18.1 0 7.3-2.4 14.3-17.4 27.5l-7.3 6.4h25.5v10.6h-41v-10.5z"/><path d="m1928.9 2077c1-.9 3.8-2.6 8.2-2.6 9.4 0 18.6 6.2 18.6 19.3 0 12.3-8.5 20.4-20.9 20.4-13.1 0-21.7-9-21.7-21.8 0-17.8 13.3-32 20.5-39l1.9-1.8h16.2l-1.2 1.1c-4.5 3.9-15.5 14.1-21.9 24.3zm5.4 27.2c5.9 0 8.9-4.6 8.9-9.9 0-5.5-3-10.1-8.9-10.1-6.1 0-9.1 4.7-9.1 10.1.1 5.3 3.1 9.9 9.1 9.9z"/><path d="m1959.2 2087.1 20.8-35.6h15.7v35.7h7.7v10.1h-7.7v15.8h-11.9v-15.8h-24.6zm10.5.1h14v-23.4h-.4z"/><path d="m2063 2089.4c0-4.9-3.2-7-6.7-7-3.3 0-6.2 1.8-8.4 4.6v26.1h-11.4v-23.7c0-4.8-3.1-7-6.7-7-3.3 0-6.2 1.8-8.4 4.6v26.1h-11.4v-40.3h11.2v1.6c0 1.4-.2 3.2-.2 3.2 3-3.7 7.5-5.8 12.1-5.8 6 0 10.6 2.6 12.9 7.3 3.3-4.7 7.9-7.3 13.6-7.3 8.7 0 14.9 5.5 14.9 15v26.4h-11.5z"/><path d="m1867.3 942.5s10.4-9.2 18.2-16.5c7.7-7.3 9.4-11.8 9.4-16.8 0-4.2-2.9-7.9-8.2-7.9-4.7 0-8.2 2.8-8.2 7.3 0 1.6.4 3.6 1.6 6.4l-11.3 2c-1.8-3.6-2.3-6.5-2.3-9.5 0-8.6 7.2-17.1 20.3-17.1 13.5 0 20.6 8.8 20.6 18.1 0 7.3-2.4 14.3-17.4 27.5l-7.3 6.4h25.5v10.6h-41v-10.5z"/><path d="m1955 907.7c0 5.5-3.2 10.9-8.8 13.4 6.1 2.4 10.1 8.4 10.1 14.8 0 11.3-8.7 18.2-21.3 18.2-12.7 0-21.3-7-21.3-18.2 0-6.4 4-12.5 10.1-14.8-5.7-2.5-8.9-7.9-8.9-13.4 0-10 7.8-17.3 20.1-17.3 12.2 0 20 7.3 20 17.3zm-11 27.6c0-4.5-3.1-8.7-9-8.7-6 0-9.1 4.2-9.1 8.7 0 4.6 3.1 8.7 9.1 8.7 5.9 0 9-4.2 9-8.7zm-1.1-26.7c0-4.4-2.4-8.1-7.9-8.1-5.6 0-8 3.7-8 8.1s2.4 8.2 8 8.2c5.5 0 7.9-3.8 7.9-8.2z"/><path d="m1960.2 927.1 20.8-35.6h15.7v35.7h7.7v10.1h-7.7v15.7h-11.9v-15.8h-24.6zm10.5.1h14v-23.4h-.4z"/><path d="m2064 929.4c0-4.9-3.2-7-6.7-7-3.3 0-6.2 1.8-8.4 4.6v26h-11.4v-23.7c0-4.8-3.1-7-6.7-7-3.3 0-6.2 1.8-8.4 4.6v26.1h-11.4v-40.3h11.2v1.6c0 1.4-.2 3.2-.2 3.2 3-3.7 7.5-5.8 12.1-5.8 6 0 10.6 2.6 12.9 7.3 3.3-4.7 7.9-7.3 13.6-7.3 8.7 0 14.9 5.5 14.9 15v26.3h-11.5z"/><path d="m1287.1 250.4h23.6v51h11.9v10.6h-36.2v-10.6h11.9v-40.4h-11.2z"/><path d="m1372.5 281.2c0 21.9-8.5 31.9-21.5 31.9s-21.6-10-21.6-31.9c0-21.6 8.5-31.8 21.6-31.8 12.9 0 21.5 10.2 21.5 31.8zm-21.5 20.6c6.1 0 9-7 9-20.7 0-13.6-2.9-20.6-9-20.6-6.2 0-9 7-9 20.6 0 13.8 2.8 20.7 9 20.7z"/><path d="m1393.3 276c1-.9 3.8-2.6 8.2-2.6 9.4 0 18.6 6.2 18.6 19.3 0 12.3-8.5 20.4-20.9 20.4-13.1 0-21.7-9-21.7-21.8 0-17.8 13.3-32 20.5-39l1.9-1.8h16.2l-1.2 1.1c-4.5 3.9-15.5 14.1-21.9 24.3zm5.5 27.2c5.9 0 8.9-4.6 8.9-9.9 0-5.5-3-10.1-8.9-10.1-6.1 0-9.1 4.7-9.1 10.1 0 5.3 3 9.9 9.1 9.9z"/><path d="m1480 288.4c0-4.9-3.2-7-6.7-7-3.3 0-6.2 1.8-8.4 4.6v26h-11.4v-23.7c0-4.8-3.1-7-6.7-7-3.3 0-6.2 1.8-8.4 4.6v26.1h-11.4v-40.3h11.2v1.6c0 1.4-.2 3.2-.2 3.2 3-3.7 7.5-5.8 12.1-5.8 6 0 10.6 2.6 12.9 7.3 3.3-4.7 7.9-7.3 13.6-7.3 8.7 0 14.9 5.5 14.9 15v26.3h-11.5z"/><path d="m363.1 409.4h23.6v51h11.9v10.6h-36.2v-10.6h11.9v-40.4h-11.2z"/><path d="m447 425.7c0 5.5-3.2 10.9-8.8 13.4 6.1 2.4 10.1 8.4 10.1 14.8 0 11.3-8.7 18.2-21.3 18.2-12.7 0-21.3-7-21.3-18.2 0-6.4 4-12.5 10.1-14.8-5.7-2.5-8.9-7.9-8.9-13.4 0-10 7.8-17.3 20.1-17.3 12.2 0 20 7.3 20 17.3zm-11 27.6c0-4.5-3.1-8.7-9-8.7-6 0-9.1 4.2-9.1 8.7 0 4.6 3.1 8.7 9.1 8.7 5.9 0 9-4.2 9-8.7zm-1.1-26.7c0-4.4-2.4-8.1-7.9-8.1-5.6 0-8 3.7-8 8.1s2.4 8.2 8 8.2c5.5 0 7.9-3.8 7.9-8.2z"/><path d="m495.9 440.2c0 21.9-8.5 31.9-21.5 31.9s-21.6-10-21.6-31.9c0-21.6 8.5-31.8 21.6-31.8 13 0 21.5 10.2 21.5 31.8zm-21.5 20.6c6.1 0 9-7 9-20.7 0-13.6-2.9-20.6-9-20.6-6.2 0-9 7-9 20.6 0 13.8 2.9 20.7 9 20.7z"/><path d="m556 447.4c0-4.9-3.2-7-6.7-7-3.3 0-6.2 1.8-8.4 4.6v26h-11.4v-23.7c0-4.8-3.1-7-6.7-7-3.3 0-6.2 1.8-8.4 4.6v26.1h-11.4v-40.3h11.2v1.6c0 1.4-.2 3.2-.2 3.2 3-3.7 7.5-5.8 12.1-5.8 6 0 10.6 2.6 12.9 7.3 3.3-4.7 7.9-7.3 13.6-7.3 8.7 0 14.9 5.5 14.9 15v26.3h-11.5z"/><path d="m933.5 2174.7c0 5.5-3.2 10.9-8.8 13.4 6.1 2.4 10.1 8.4 10.1 14.8 0 11.3-8.7 18.2-21.3 18.2-12.7 0-21.3-7-21.3-18.2 0-6.4 4-12.5 10.1-14.8-5.7-2.5-8.9-7.9-8.9-13.4 0-10 7.8-17.3 20.1-17.3s20 7.3 20 17.3zm-11 27.6c0-4.5-3.1-8.7-9-8.7-6 0-9.1 4.2-9.1 8.7 0 4.6 3.1 8.7 9.1 8.7s9-4.2 9-8.7zm-1-26.7c0-4.4-2.4-8.1-7.9-8.1-5.6 0-8 3.7-8 8.1s2.4 8.2 8 8.2c5.5 0 7.9-3.8 7.9-8.2z"/><path d="m938.7 2194.1 20.8-35.6h15.7v35.7h7.7v10.1h-7.7v15.8h-11.9v-15.8h-24.6zm10.6.1h14v-23.4h-.4z"/><path d="m1042.6 2196.4c0-4.9-3.2-7-6.7-7-3.3 0-6.2 1.8-8.4 4.6v26.1h-11.4v-23.7c0-4.8-3.1-7-6.7-7-3.3 0-6.2 1.8-8.4 4.6v26.1h-11.4v-40.3h11.2v1.6c0 1.4-.2 3.2-.2 3.2 3-3.7 7.5-5.8 12.1-5.8 6 0 10.6 2.6 12.9 7.3 3.3-4.7 7.9-7.3 13.6-7.3 8.7 0 14.9 5.5 14.9 15v26.4h-11.4v-23.8z"/><path d="m523.3 1741.5s10.4-9.2 18.2-16.5c7.7-7.3 9.4-11.8 9.4-16.8 0-4.2-2.9-7.9-8.2-7.9-4.7 0-8.2 2.8-8.2 7.3 0 1.6.4 3.6 1.6 6.4l-11.3 2c-1.8-3.6-2.3-6.5-2.3-9.5 0-8.6 7.2-17.1 20.3-17.1 13.5 0 20.6 8.8 20.6 18.1 0 7.3-2.4 14.3-17.4 27.5l-7.3 6.4h25.5v10.6h-41v-10.5z"/><path d="m612.5 1721.2c0 21.9-8.5 31.9-21.5 31.9s-21.6-10-21.6-31.9c0-21.6 8.5-31.8 21.6-31.8 12.9 0 21.5 10.2 21.5 31.8zm-21.5 20.6c6.1 0 9-7 9-20.7 0-13.6-2.9-20.6-9-20.6-6.2 0-9 7-9 20.6 0 13.8 2.8 20.7 9 20.7z"/><path d="m659.9 1721.2c0 21.9-8.5 31.9-21.5 31.9s-21.6-10-21.6-31.9c0-21.6 8.5-31.8 21.6-31.8 13 0 21.5 10.2 21.5 31.8zm-21.5 20.6c6.1 0 9-7 9-20.7 0-13.6-2.9-20.6-9-20.6-6.2 0-9 7-9 20.6 0 13.8 2.9 20.7 9 20.7z"/><path d="m720 1728.4c0-4.9-3.2-7-6.7-7-3.3 0-6.2 1.8-8.4 4.6v26.1h-11.4v-23.7c0-4.8-3.1-7-6.7-7-3.3 0-6.2 1.8-8.4 4.6v26.1h-11.4v-40.3h11.2v1.6c0 1.4-.2 3.2-.2 3.2 3-3.7 7.5-5.8 12.1-5.8 6 0 10.6 2.6 12.9 7.3 3.3-4.7 7.9-7.3 13.6-7.3 8.7 0 14.9 5.5 14.9 15v26.4h-11.5z"/></g><path d="m2199 1548.8-1118 328.7-591.5-656.7 142.6-127.3-245.1-272.6 478.4-425.7 243.8 270.7 167.5-148.1z" fill="none" stroke="#fff" stroke-miterlimit="10" stroke-width="8"/><path d="m648.1 643.5h424.2v424.2h-424.2z" fill="none" stroke="#999" stroke-miterlimit="10" stroke-width="5" transform="matrix(.7458 -.6661 .6661 .7458 -351.2937 790.4638)"/><path d="m889.7 1375.2 9.2-162.1 317.3-283.4 162.1 9.2 505.2 565.7-686.7 214.4z" fill="none" stroke="#999" stroke-miterlimit="10" stroke-width="5"/><path d="m1273 1310.7h95v95h-95z" fill="none" stroke="#999" stroke-miterlimit="10" stroke-width="5" transform="matrix(.7458 -.6661 .6661 .7458 -569.1354 1224.8258)"/><circle cx="1320.5" cy="1358.2" fill="none" r="131.2" stroke="#999" stroke-miterlimit="10" stroke-width="5"/><circle cx="763.2" cy="942.2" fill="none" r="50.3" stroke="#999" stroke-miterlimit="10" stroke-width="5"/><circle cx="862.8" cy="853.3" fill="none" r="50.3" stroke="#999" stroke-miterlimit="10" stroke-width="5"/><circle cx="957.3" cy="768.9" fill="none" r="50.3" stroke="#999" stroke-miterlimit="10" stroke-width="5"/><path d="m567.8 1225.2 526.7 589.7 1004.8-301.3-828.9-928.1-166.2 148.5-238.1-266.6-404.9 361.7 244.1 273.3z" fill="none" stroke="#999" stroke-miterlimit="10" stroke-width="5"/><circle cx="655.5" cy="1231.8" fill="none" r="29.4" stroke="#999" stroke-miterlimit="10" stroke-width="5"/><circle cx="1112.9" cy="1743.9" fill="none" r="29.4" stroke="#999" stroke-miterlimit="10" stroke-width="5"/><circle cx="1992.9" cy="1481.1" fill="none" r="29.4" stroke="#999" stroke-miterlimit="10" stroke-width="5"/><circle cx="1269.7" cy="683.2" fill="none" r="29.4" stroke="#999" stroke-miterlimit="10" stroke-width="5"/><g fill="none" opacity=".5" stroke="#1bacfb" stroke-miterlimit="10" stroke-width="8"><path d="m1095 1894 4 4.5"/><path d="m1106.9 1907.6 282.2 322.3" stroke-dasharray="12.0678 12.0678"/><path d="m1393 2234.5 4 4.5 4.6-3.9"/><path d="m1410.8 2227.2 751-640.4" stroke-dasharray="12.1107 12.1107"/><path d="m2166.4 1582.9 4.6-3.9"/></g><path d="m171 2185v292h581v-108h-122v-112h-123v74h-45v-198h-129v108h-40v-138h-122z" fill="none" opacity=".31" stroke="#fff" stroke-miterlimit="10" stroke-width="6"/><path d="m1947 2475h723v-636h-161v178h-103v222l-98-122-172 107 35 80-72 37-77-37z" fill="none" opacity=".31" stroke="#fff" stroke-miterlimit="10" stroke-width="6"/><path d="m2670 683v778l-232-123v-172h80l-4-94h-265v-115h77v-53h-77v-135h189v-86z" fill="none" opacity=".31" stroke="#fff" stroke-miterlimit="10" stroke-width="6"/></svg>