<svg enable-background="new 0 0 2795 2628" viewBox="0 0 2795 2628" xmlns="http://www.w3.org/2000/svg"><path d="m0 0h2795v2628h-2795z" fill="#151e39"/><path d="m2173.5 1431.8h-10.8l-4.3-13.8h-15.2l-4 13.8h-10.5l16.3-50.4h12zm-22.7-39.6h-.1l-5.1 17.3h10.3z" fill="#1bacfb"/><path d="m2210.7 1398.9v35.4c0 5.2-2.6 10.2-10.6 10.2h-14.3v-7.9h12c1.7 0 3.5-.4 3.5-3v-6.3c-1.6 2.7-5.5 5-10.2 5-8.9 0-15.8-6.8-15.8-17.1 0-10.4 6.8-17.1 15.8-17.1 5 0 8.8 2.3 10.4 5.1 0-.4-.1-1-.1-2.7v-1.5h9.3zm-17.4 25.2c5 0 8.4-3.7 8.4-9 0-5.4-3.4-9.1-8.4-9.1-4.9 0-8.3 3.7-8.3 9.1s3.4 9 8.3 9z" fill="#1bacfb"/><path d="m2239 1408.1h-4c-4.8 0-6.9 2.2-6.9 8v15.8h-9.4v-33h9.1v5.3c1.3-3.5 4.5-5.7 8.6-5.7.9 0 1.7.1 2.6.3z" fill="#1bacfb"/><path d="m2262.3 1409.9c0-2.4-1.9-3.9-5.5-3.9-3.3 0-7.5 1.7-9.9 3.1l-3.7-7.1s6.1-4 14.1-4c7.5 0 14.3 3.5 14.3 12.2v21.7h-9.4v-3.1c-1.7 2.6-5.5 4-9.2 4-7 0-11.5-5-11.5-10.4 0-6.3 4.6-10.2 12-10.2h6.5c1.6 0 2.3-.7 2.3-1.9zm0 10.1v-2.4c-.6.6-1.6.7-2.9.7h-3.5c-3 0-4.7 1.3-4.7 3.6 0 2.2 1.8 3.9 4.7 3.9 3.4.1 6.4-1.7 6.4-5.8z" fill="#1bacfb"/><path d="m2285 1420.2c3.6 0 6.5 2.7 6.5 6.3 0 1-.4 2.7-.9 3.6l-5.7 10.6h-7.6l4.1-9.1c-1.7-1.1-2.7-3-2.7-5.1.1-3.5 2.8-6.3 6.3-6.3z" fill="#1bacfb"/><path d="m2314.6 1381.4h10v50.4h-10z" fill="#1bacfb"/><path d="m2353 1398c7.1 0 12.2 4.5 12.2 12.2v21.6h-9.4v-19.2c0-4.2-2.7-5.9-5.6-5.9-2.7 0-5.2 1.5-7 3.7v21.4h-9.4v-33h9.1v1.3c0 1.2-.1 2.6-.1 2.6 2.7-3 6.4-4.7 10.2-4.7z" fill="#1bacfb"/><path d="m2397.2 1427.7c-1.7 2.7-5.5 5-10.3 5-9.1 0-16-7.3-16-17.4s6.8-17.4 15.9-17.4c5 0 8.9 2.3 10.5 5.1 0-1.1-.1-3.8-.1-6.3v-15.4h9.4v50.4h-9.4zm-16.6-12.3c0 5 3.5 9.1 8.4 9.1 5 0 8.4-4 8.4-9.1s-3.5-9-8.4-9c-5 0-8.4 3.8-8.4 9z" fill="#1bacfb"/><path d="m2426 1431.8h-9.4v-25.1h-4.6v-7.9h14zm-5.2-50.4c3.4 0 6 2.7 6 6 0 3.4-2.7 6-6 6s-6-2.6-6-6c.1-3.2 2.7-6 6-6z" fill="#1bacfb"/><path d="m2452.3 1409.9c0-2.4-1.9-3.9-5.5-3.9-3.3 0-7.5 1.7-9.9 3.1l-3.7-7.1s6.1-4 14.1-4c7.5 0 14.3 3.5 14.3 12.2v21.7h-9.4v-3.1c-1.7 2.6-5.5 4-9.2 4-7 0-11.5-5-11.5-10.4 0-6.3 4.6-10.2 12-10.2h6.5c1.6 0 2.3-.7 2.3-1.9zm0 10.1v-2.4c-.6.6-1.6.7-2.9.7h-3.5c-3 0-4.7 1.3-4.7 3.6 0 2.2 1.8 3.9 4.7 3.9 3.4.1 6.4-1.7 6.4-5.8z" fill="#1bacfb"/><path d="m2199.6 1222.4v17.6h-29.7v81.8h-19.6v-81.8h-29.7v-17.6z" fill="#1bacfb"/><path d="m2231.7 1278.5c0-4.7-3.7-7.7-10.8-7.7-6.5 0-14.8 3.3-19.6 6.1l-7.2-13.9s12.1-8 27.8-8c14.8 0 28.3 6.8 28.3 24v42.7h-18.5v-6.1c-3.4 5.1-10.8 7.8-18.2 7.8-13.8 0-22.7-9.8-22.7-20.4 0-12.4 9.1-20 23.6-20h12.8c3.1 0 4.5-1.4 4.5-3.8zm0 20.1v-4.7c-1.1 1.1-3.1 1.4-5.7 1.4h-7c-5.8 0-9.2 2.6-9.2 7.1 0 4.4 3.5 7.7 9.2 7.7 6.7 0 12.7-3.5 12.7-11.5z" fill="#1bacfb"/><path d="m2269.2 1272.4h-9.1v-15.6h27.5v74.3c0 14.2-11.4 15.8-20.6 15.8h-9.8v-15.6h6.4c3.7 0 5.5-.9 5.5-4.1v-54.8zm8.4-50c6.7 0 11.9 5.4 11.9 11.9 0 6.7-5.3 11.8-11.9 11.8-6.5 0-11.8-5.1-11.8-11.8 0-6.5 5.2-11.9 11.8-11.9z" fill="#1bacfb"/><path d="m2373.1 1300.5-19.6-49v70.3h-19.2v-99.4h27.8l21.7 56.4 22.2-56.4h26.6v99.4h-19.6v-70.3l-19 49z" fill="#1bacfb"/><path d="m2485.7 1278.5c0-4.7-3.7-7.7-10.8-7.7-6.5 0-14.8 3.3-19.6 6.1l-7.2-13.9s12.1-8 27.8-8c14.8 0 28.3 6.8 28.3 24v42.7h-18.5v-6.1c-3.4 5.1-10.8 7.8-18.2 7.8-13.8 0-22.7-9.8-22.7-20.4 0-12.4 9.1-20 23.6-20h12.8c3.1 0 4.5-1.4 4.5-3.8zm0 20.1v-4.7c-1.1 1.1-3.1 1.4-5.7 1.4h-7c-5.8 0-9.2 2.6-9.2 7.1 0 4.4 3.6 7.7 9.2 7.7 6.8 0 12.7-3.5 12.7-11.5z" fill="#1bacfb"/><path d="m2557 1255.1c14.1 0 24.1 8.9 24.1 24.1v42.6h-18.5v-37.9c0-8.2-5.3-11.6-11.1-11.6-5.4 0-10.2 3-13.8 7.4v42.2h-18.5v-99.4h18.2v36.9c0 2.3-.3 5.1-.3 5.1 5.1-6.1 12.5-9.4 19.9-9.4z" fill="#1bacfb"/><path d="m2632.4 1278.5c0-4.7-3.7-7.7-10.8-7.7-6.5 0-14.8 3.3-19.6 6.1l-7.2-13.9s12.1-8 27.8-8c14.8 0 28.3 6.8 28.3 24v42.7h-18.5v-6.1c-3.4 5.1-10.8 7.8-18.2 7.8-13.8 0-22.7-9.8-22.7-20.4 0-12.4 9.1-20 23.6-20h12.8c3.1 0 4.5-1.4 4.5-3.8zm0 20.1v-4.7c-1.1 1.1-3.1 1.4-5.7 1.4h-7c-5.8 0-9.2 2.6-9.2 7.1 0 4.4 3.5 7.7 9.2 7.7 6.8 0 12.7-3.5 12.7-11.5z" fill="#1bacfb"/><path d="m2684.4 1321.8h-18.3v-99.4h18.3z" fill="#1bacfb"/><g fill="none" stroke-miterlimit="10"><path d="m906.2 1613.5v-93.7l-65.2-65.3h-61.5v-22h77l77 80v100" stroke="#999" stroke-width="5"/><path d="m791.5 1432.5v22" stroke="#999" stroke-width="5"/><path d="m802.5 1433v22" stroke="#999" stroke-width="5"/><path d="m814.5 1432v22" stroke="#999" stroke-width="5"/><path d="m825.5 1432v22" stroke="#999" stroke-width="5"/><path d="m836.5 1432v22" stroke="#999" stroke-width="5"/><path d="m856.5 1434-17 20.5" stroke="#999" stroke-width="5"/><path d="m866.5 1445-19 17.5" stroke="#999" stroke-width="5"/><path d="m874.5 1453-19 17.5" stroke="#999" stroke-width="5"/><path d="m883.5 1461-19 17.5" stroke="#999" stroke-width="5"/><path d="m891.5 1471-19 17.5" stroke="#999" stroke-width="5"/><path d="m901.5 1480-19 17.5" stroke="#999" stroke-width="5"/><path d="m909.5 1489-19 17.5" stroke="#999" stroke-width="5"/><path d="m916.5 1496-19 17.5" stroke="#999" stroke-width="5"/><path d="m924.5 1502-19 17.5" stroke="#999" stroke-width="5"/><path d="m907.5 1522.5h26" stroke="#999" stroke-width="5"/><path d="m908 1534.5h26" stroke="#999" stroke-width="5"/><path d="m908 1545.5h26" stroke="#999" stroke-width="5"/><path d="m908 1557.5h26" stroke="#999" stroke-width="5"/><path d="m908 1569.5h26" stroke="#999" stroke-width="5"/><path d="m908 1580.5h26" stroke="#999" stroke-width="5"/><path d="m908 1592.5h26" stroke="#999" stroke-width="5"/><path d="m908 1603.5h26" stroke="#999" stroke-width="5"/><path d="m1291.2 1613.5v-93.7l65.3-65.3h61.5v-22h-77l-77 80v100" stroke="#999" stroke-width="5"/><path d="m1406 1432.5v22" stroke="#999" stroke-width="5"/><path d="m1395 1433v22" stroke="#999" stroke-width="5"/><path d="m1383 1432v22" stroke="#999" stroke-width="5"/><path d="m1372 1432v22" stroke="#999" stroke-width="5"/><path d="m1361 1432v22" stroke="#999" stroke-width="5"/><path d="m1341 1434 17 20.5" stroke="#999" stroke-width="5"/><path d="m1331 1445 19 17.5" stroke="#999" stroke-width="5"/><path d="m1323 1453 19 17.5" stroke="#999" stroke-width="5"/><path d="m1314 1461 19 17.5" stroke="#999" stroke-width="5"/><path d="m1306 1471 19 17.5" stroke="#999" stroke-width="5"/><path d="m1296 1480 19 17.5" stroke="#999" stroke-width="5"/><path d="m1288 1489 19 17.5" stroke="#999" stroke-width="5"/><path d="m1281 1496 19 17.5" stroke="#999" stroke-width="5"/><path d="m1273 1502 19 17.5" stroke="#999" stroke-width="5"/><path d="m1290 1522.5h-26" stroke="#999" stroke-width="5"/><path d="m1289.5 1534.5h-26" stroke="#999" stroke-width="5"/><path d="m1289.5 1545.5h-26" stroke="#999" stroke-width="5"/><path d="m1289.5 1557.5h-26" stroke="#999" stroke-width="5"/><path d="m1289.5 1569.5h-26" stroke="#999" stroke-width="5"/><path d="m1289.5 1580.5h-26" stroke="#999" stroke-width="5"/><path d="m1289.5 1592.5h-26" stroke="#999" stroke-width="5"/><path d="m1289.5 1603.5h-26" stroke="#999" stroke-width="5"/><path d="m1291.2 982v93.8l65.3 65.2h61.5v22h-77l-77-80v-100" stroke="#999" stroke-width="5"/><path d="m1406 1163v-22" stroke="#999" stroke-width="5"/><path d="m1395 1162.5v-22" stroke="#999" stroke-width="5"/><path d="m1383 1163.5v-22" stroke="#999" stroke-width="5"/><path d="m1372 1163.5v-22" stroke="#999" stroke-width="5"/><path d="m1361 1163.5v-22" stroke="#999" stroke-width="5"/><path d="m1341 1161.5 17-20.5" stroke="#999" stroke-width="5"/><path d="m1331 1150.5 19-17.5" stroke="#999" stroke-width="5"/><path d="m1323 1142.5 19-17.5" stroke="#999" stroke-width="5"/><path d="m1314 1134.5 19-17.5" stroke="#999" stroke-width="5"/><path d="m1306 1124.5 19-17.5" stroke="#999" stroke-width="5"/><path d="m1296 1115.5 19-17.5" stroke="#999" stroke-width="5"/><path d="m1288 1106.5 19-17.5" stroke="#999" stroke-width="5"/><path d="m1281 1099.5 19-17.5" stroke="#999" stroke-width="5"/><path d="m1273 1093.5 19-17.5" stroke="#999" stroke-width="5"/><path d="m1290 1073h-26" stroke="#999" stroke-width="5"/><path d="m1289.5 1061h-26" stroke="#999" stroke-width="5"/><path d="m1289.5 1050h-26" stroke="#999" stroke-width="5"/><path d="m1289.5 1038h-26" stroke="#999" stroke-width="5"/><path d="m1289.5 1026h-26" stroke="#999" stroke-width="5"/><path d="m1289.5 1015h-26" stroke="#999" stroke-width="5"/><path d="m1289.5 1003h-26" stroke="#999" stroke-width="5"/><path d="m1289.5 992h-26" stroke="#999" stroke-width="5"/><path d="m907.2 982v93.8l-65.2 65.2h-61.5v22h77l77-80v-100" stroke="#999" stroke-width="5"/><path d="m792.5 1163v-22" stroke="#999" stroke-width="5"/><path d="m803.5 1162.5v-22" stroke="#999" stroke-width="5"/><path d="m815.5 1163.5v-22" stroke="#999" stroke-width="5"/><path d="m826.5 1163.5v-22" stroke="#999" stroke-width="5"/><path d="m837.5 1163.5v-22" stroke="#999" stroke-width="5"/><path d="m857.5 1161.5-17-20.5" stroke="#999" stroke-width="5"/><path d="m867.5 1150.5-19-17.5" stroke="#999" stroke-width="5"/><path d="m875.5 1142.5-19-17.5" stroke="#999" stroke-width="5"/><path d="m884.5 1134.5-19-17.5" stroke="#999" stroke-width="5"/><path d="m892.5 1124.5-19-17.5" stroke="#999" stroke-width="5"/><path d="m902.5 1115.5-19-17.5" stroke="#999" stroke-width="5"/><path d="m910.5 1106.5-19-17.5" stroke="#999" stroke-width="5"/><path d="m917.5 1099.5-19-17.5" stroke="#999" stroke-width="5"/><path d="m925.5 1093.5-19-17.5" stroke="#999" stroke-width="5"/><path d="m908.5 1073h26" stroke="#999" stroke-width="5"/><path d="m909 1061h26" stroke="#999" stroke-width="5"/><path d="m909 1050h26" stroke="#999" stroke-width="5"/><path d="m909 1038h26" stroke="#999" stroke-width="5"/><path d="m909 1026h26" stroke="#999" stroke-width="5"/><path d="m909 1015h26" stroke="#999" stroke-width="5"/><path d="m909 1003h26" stroke="#999" stroke-width="5"/><path d="m909 992h26" stroke="#999" stroke-width="5"/><g opacity=".31" stroke="#fff" stroke-width="5"><path d="m1985.8 413.5 55.7-55.6v-78.8l-55.7-55.6h-78.7l-55.6 55.6v.4h-1531v-.4l-55.7-55.6h-78.7l-55.6 55.6v78.8l55.6 55.6h1.4v1722h-2.4l-55.6 55.6v78.8l55.6 55.6h78.7l54-54h1535.4l53.9 54h78.7l55.7-55.6v-78.8l-55.7-55.6h-.3v-1722z"/><path d="m187.5 1122.5h86v96h-86z"/><path d="m187.5 1256.5h86v96h-86z"/><path d="m187.5 1390.5h86v96h-86z"/><path d="m187.5 1352.5h32v38h-32z"/><path d="m187.5 1218.5h32v38h-32z"/><path d="m1899.5 1390.5h86v96h-86z" transform="matrix(-1 0 0 -1 3885 2877)"/><path d="m1899.5 1256.5h86v96h-86z" transform="matrix(-1 0 0 -1 3885 2609)"/><path d="m1899.5 1122.5h86v96h-86z" transform="matrix(-1 0 0 -1 3885 2341)"/><path d="m1953.5 1218.5h32v38h-32z" transform="matrix(-1 0 0 -1 3939 2475)"/><path d="m1953.5 1352.5h32v38h-32z" transform="matrix(-1 0 0 -1 3939 2743)"/><path d="m1187.5 274.5h86v96h-86z" transform="matrix(0 1 -1 0 1553 -908)"/><path d="m1053.5 274.5h86v96h-86z" transform="matrix(0 1 -1 0 1419 -774)"/><path d="m919.5 274.5h86v96h-86z" transform="matrix(0 1 -1 0 1285 -640)"/><path d="m1013.5 276.5h32v38h-32z" transform="matrix(0 1 -1 0 1325 -734)"/><path d="m1147.5 276.5h32v38h-32z" transform="matrix(0 1 -1 0 1459 -868)"/><path d="m825.5 2271.5h546v54h-546z"/><path d="m839.5 2325.5v-54"/><path d="m853.5 2326v-54"/><path d="m867.5 2326v-54"/><path d="m881.5 2326v-54"/><path d="m895.5 2325.5v-54"/><path d="m909.5 2326v-54"/><path d="m923.5 2326v-54"/><path d="m937.5 2326v-54"/><path d="m1259.5 2299h-321.5"/><path d="m1259.5 2325.5v-54"/><path d="m1273.5 2326v-54"/><path d="m1287.5 2326v-54"/><path d="m1301.5 2326v-54"/><path d="m1315.5 2325.5v-54"/><path d="m1329.5 2326v-54"/><path d="m1343.5 2326v-54"/><path d="m1357.5 2326v-54"/></g><path d="m437.5 734.5v1137" stroke="#1bacfb" stroke-width="6"/><path d="m411 1872h55" stroke="#1bacfb" stroke-width="6"/><path d="m410 734h55" stroke="#1bacfb" stroke-width="6"/><path d="m1724.5 735.1v167.8" stroke="#1bacfb" stroke-width="6"/><path d="m1698 903h55" stroke="#1bacfb" stroke-width="6"/><path d="m1697 735h55" stroke="#1bacfb" stroke-width="6"/><path d="m1664.9 660.5h-167.8" stroke="#1bacfb" stroke-width="6"/><path d="m1497 634v55" stroke="#1bacfb" stroke-width="6"/><path d="m1665 633v55" stroke="#1bacfb" stroke-width="6"/><path d="m1662 2007h-1137" stroke="#1bacfb" stroke-width="6"/><path d="m525 1979v55" stroke="#1bacfb" stroke-width="6"/><path d="m1662 1979v55" stroke="#1bacfb" stroke-width="6"/></g><path d="m359.6 1412.3c.9 1 2.6 3.8 2.6 8.2 0 9.4-6.2 18.6-19.3 18.6-12.3 0-20.4-8.5-20.4-20.9 0-13.1 9-21.7 21.8-21.7 17.8 0 32 13.3 39 20.5l1.8 1.9v16.2l-1.1-1.2c-3.9-4.5-14.1-15.5-24.3-21.9zm-27.2 5.5c0 5.9 4.6 8.9 9.9 8.9 5.5 0 10.1-3 10.1-8.9 0-6.1-4.7-9.1-10.1-9.1-5.3 0-9.9 3-9.9 9.1z" fill="#1bacfb"/><path d="m354.2 1348.4c21.9 0 31.9 8.5 31.9 21.5s-10 21.6-31.9 21.6c-21.6 0-31.8-8.5-31.8-21.6.1-12.9 10.3-21.5 31.8-21.5zm20.7 21.5c0-6.1-7-9-20.7-9-13.6 0-20.6 2.9-20.6 9 0 6.2 7 9 20.6 9 13.8 0 20.7-2.8 20.7-9z" fill="#1bacfb"/><path d="m370.9 1334.4c0-4.2 3.4-7.7 7.7-7.7s7.7 3.4 7.7 7.7-3.4 7.7-7.7 7.7-7.7-3.4-7.7-7.7z" fill="#1bacfb"/><path d="m376.1 1299.2c0-5.9-4.6-8.1-10.6-8.1-6.2 0-10.7 2.4-10.7 8.3 0 3.2 1.2 5.6 2.6 7l-1.1 10.3h-32.6v-36.2h10.6v25.4h12.8v-.4c-1.6-2.1-2.3-6.1-2.3-8.8 0-11.7 8.4-18.4 20.2-18.4 12.5 0 21.5 7.1 21.5 20.5 0 13.1-7.8 20.5-18.7 20.5h-2.7v-12.5h2.6c4.1.1 8.4-1.8 8.4-7.6z" fill="#1bacfb"/><path d="m361.5 1217.3c-4.9 0-7 3.2-7 6.7 0 3.3 1.8 6.2 4.6 8.4h26.1v11.4h-23.7c-4.8 0-7 3.1-7 6.7 0 3.3 1.8 6.2 4.6 8.4h26.1v11.4h-40.3v-11.2h1.6c1.4 0 3.2.2 3.2.2-3.7-3-5.8-7.5-5.8-12.1 0-6 2.6-10.6 7.3-12.9-4.7-3.3-7.3-7.9-7.3-13.6 0-8.7 5.5-14.9 15-14.9h26.4v11.4h-23.8z" fill="#1bacfb"/><path d="m1501.3 568.5s10.4-9.2 18.2-16.5c7.7-7.3 9.4-11.8 9.4-16.8 0-4.2-2.9-7.9-8.2-7.9-4.7 0-8.2 2.8-8.2 7.3 0 1.6.4 3.6 1.6 6.4l-11.3 2c-1.8-3.6-2.3-6.5-2.3-9.5 0-8.6 7.2-17.1 20.3-17.1 13.5 0 20.6 8.8 20.6 18.1 0 7.3-2.4 14.3-17.4 27.5l-7.3 6.4h25.5v10.6h-41v-10.5z" fill="#1bacfb"/><path d="m1546.7 553.1 20.8-35.6h15.7v35.7h7.7v10.1h-7.7v15.7h-11.9v-15.8h-24.6zm10.6.1h14v-23.4h-.4z" fill="#1bacfb"/><path d="m1650.6 555.4c0-4.9-3.2-7-6.7-7-3.3 0-6.2 1.8-8.4 4.6v26h-11.4v-23.7c0-4.8-3.1-7-6.7-7-3.3 0-6.2 1.8-8.4 4.6v26.1h-11.4v-40.3h11.2v1.6c0 1.4-.2 3.2-.2 3.2 3-3.7 7.5-5.8 12.1-5.8 6 0 10.6 2.6 12.9 7.3 3.3-4.7 7.9-7.3 13.6-7.3 8.7 0 14.9 5.5 14.9 15v26.3h-11.4v-23.6z" fill="#1bacfb"/><path d="m1782.3 839.5s10.4-9.2 18.2-16.5c7.7-7.3 9.4-11.8 9.4-16.8 0-4.2-2.9-7.9-8.2-7.9-4.7 0-8.2 2.8-8.2 7.3 0 1.6.4 3.6 1.6 6.4l-11.3 2c-1.8-3.6-2.3-6.5-2.3-9.5 0-8.6 7.2-17.1 20.3-17.1 13.5 0 20.6 8.8 20.6 18.1 0 7.3-2.4 14.3-17.4 27.5l-7.3 6.4h25.5v10.6h-41v-10.5z" fill="#1bacfb"/><path d="m1827.7 824.1 20.8-35.6h15.7v35.7h7.7v10.1h-7.7v15.7h-11.9v-15.8h-24.6zm10.6.1h14v-23.4h-.4z" fill="#1bacfb"/><path d="m1931.6 826.4c0-4.9-3.2-7-6.7-7-3.3 0-6.2 1.8-8.4 4.6v26h-11.4v-23.7c0-4.8-3.1-7-6.7-7-3.3 0-6.2 1.8-8.4 4.6v26.1h-11.4v-40.3h11.2v1.6c0 1.4-.2 3.2-.2 3.2 3-3.7 7.5-5.8 12.1-5.8 6 0 10.6 2.6 12.9 7.3 3.3-4.7 7.9-7.3 13.6-7.3 8.7 0 14.9 5.5 14.9 15v26.3h-11.4v-23.6z" fill="#1bacfb"/><path d="m1009.6 2096.5c-1 .9-3.8 2.6-8.2 2.6-9.4 0-18.6-6.2-18.6-19.3 0-12.3 8.5-20.4 20.9-20.4 13.1 0 21.7 9 21.7 21.8 0 17.8-13.3 32-20.5 39l-1.9 1.8h-16.2l1.2-1.1c4.5-3.9 15.5-14.1 21.9-24.3zm-5.5-27.2c-5.9 0-8.9 4.6-8.9 9.9 0 5.5 3 10.1 8.9 10.1 6.1 0 9.1-4.7 9.1-10.1 0-5.3-3-9.9-9.1-9.9z" fill="#1bacfb"/><path d="m1073.5 2091.2c0 21.9-8.5 31.9-21.5 31.9s-21.6-10-21.6-31.9c0-21.6 8.5-31.8 21.6-31.8 12.9 0 21.5 10.2 21.5 31.8zm-21.5 20.6c6.1 0 9-7 9-20.7 0-13.6-2.9-20.6-9-20.6-6.2 0-9 7-9 20.6 0 13.8 2.8 20.7 9 20.7z" fill="#1bacfb"/><path d="m1087.5 2107.8c4.2 0 7.7 3.4 7.7 7.7s-3.4 7.7-7.7 7.7c-4.2 0-7.7-3.4-7.7-7.7s3.4-7.7 7.7-7.7z" fill="#1bacfb"/><path d="m1122.7 2113c5.9 0 8.1-4.6 8.1-10.6 0-6.2-2.4-10.7-8.3-10.7-3.2 0-5.6 1.2-7 2.6l-10.3-1.1v-32.6h36.2v10.6h-25.4v12.8h.4c2.1-1.6 6.1-2.3 8.8-2.3 11.7 0 18.4 8.4 18.4 20.2 0 12.5-7.1 21.5-20.5 21.5-13.1 0-20.5-7.8-20.5-18.7v-2.7h12.5v2.6c-.1 4.2 1.8 8.4 7.6 8.4z" fill="#1bacfb"/><path d="m1204.6 2098.4c0-4.9-3.2-7-6.7-7-3.3 0-6.2 1.8-8.4 4.6v26.1h-11.4v-23.7c0-4.8-3.1-7-6.7-7-3.3 0-6.2 1.8-8.4 4.6v26.1h-11.4v-40.3h11.2v1.6c0 1.4-.2 3.2-.2 3.2 3-3.7 7.5-5.8 12.1-5.8 6 0 10.6 2.6 12.9 7.3 3.3-4.7 7.9-7.3 13.6-7.3 8.7 0 14.9 5.5 14.9 15v26.4h-11.4v-23.8z" fill="#1bacfb"/><path d="m1517 735h6" fill="none" stroke="#1bacfb" stroke-miterlimit="10" stroke-width="6"/><path d="m1535.4 735h117.4" fill="none" stroke="#1bacfb" stroke-dasharray="12.3636 12.3636" stroke-miterlimit="10" stroke-width="6"/><path d="m1659 735h6v6" fill="none" stroke="#1bacfb" stroke-miterlimit="10" stroke-width="6"/><path d="m1665 753.9v122.6" fill="none" stroke="#1bacfb" stroke-dasharray="12.9091 12.9091" stroke-miterlimit="10" stroke-width="6"/><path d="m1665 883v6" fill="none" stroke="#1bacfb" stroke-miterlimit="10" stroke-width="6"/><path d="m1170.9 1125.5h-147.6l-104.3 104.3v147.6l104.3 104.4h147.6l104.3-104.4v-147.6z" fill="none" stroke="#999" stroke-miterlimit="10" stroke-width="5"/><path d="m1467.6 889h-62l-43.9 43.8v62.1l43.9 43.9h62l43.9-43.9v-62.1z" fill="none" stroke="#999" stroke-miterlimit="10" stroke-width="5"/><path d="m790.6 892h-62l-43.9 43.8v62.1l43.9 43.9h62l43.9-43.9v-62.1z" fill="none" stroke="#999" stroke-miterlimit="10" stroke-width="5"/><path d="m1467.6 1557h-62l-43.9 43.8v62.1l43.9 43.9h62l43.9-43.9v-62.1z" fill="none" stroke="#999" stroke-miterlimit="10" stroke-width="5"/><path d="m790.6 1557h-62l-43.9 43.8v62.1l43.9 43.9h62l43.9-43.9v-62.1z" fill="none" stroke="#999" stroke-miterlimit="10" stroke-width="5"/><path d="m969.5 734.5h257v130h-257z" fill="none" stroke="#999" stroke-miterlimit="10" stroke-width="5"/><path d="m1049.5 1063.5h97v62h-97z" fill="none" stroke="#999" stroke-miterlimit="10" stroke-width="5"/><path d="m1049.5 917.5h97v97h-97z" fill="none" stroke="#999" stroke-miterlimit="10" stroke-width="5"/><path d="m1079.5 1014.5h37v49h-37z" fill="none" stroke="#999" stroke-miterlimit="10" stroke-width="5"/><path d="m1079.5 864.5h37v53h-37z" fill="none" stroke="#999" stroke-miterlimit="10" stroke-width="5"/><path d="m1079.5 1687.5h37v54h-37z" fill="none" stroke="#999" stroke-miterlimit="10" stroke-width="5"/><path d="m816 1281h37v46h-37z" fill="none" stroke="#999" stroke-miterlimit="10" stroke-width="5" transform="matrix(0 1 -1 0 2138.5 469.5)"/><path d="m668 1276h37v56h-37z" fill="none" stroke="#999" stroke-miterlimit="10" stroke-width="5" transform="matrix(0 1 -1 0 1990.5 617.5)"/><path d="m1492 1279h37v50h-37z" fill="none" stroke="#999" stroke-miterlimit="10" stroke-width="5" transform="matrix(0 1 -1 0 2814.5 -206.5)"/><path d="m1344.5 1278.5h37v51h-37z" fill="none" stroke="#999" stroke-miterlimit="10" stroke-width="5" transform="matrix(0 1 -1 0 2667 -59)"/><path d="m1079.5 1543.5h37v47h-37z" fill="none" stroke="#999" stroke-miterlimit="10" stroke-width="5"/><path d="m1418.5 1352.5h37v204h-37z" fill="none" stroke="#999" stroke-miterlimit="10" stroke-width="5"/><path d="m742.5 1352.5h37v204h-37z" fill="none" stroke="#999" stroke-miterlimit="10" stroke-width="5"/><path d="m1418.5 1038.5h37v217h-37z" fill="none" stroke="#999" stroke-miterlimit="10" stroke-width="5"/><path d="m742.5 1042.5h37v213h-37z" fill="none" stroke="#999" stroke-miterlimit="10" stroke-width="5"/><path d="m1418.5 1706.5h37v129h-37z" fill="none" stroke="#999" stroke-miterlimit="10" stroke-width="5"/><path d="m741.5 1706.5h37v129h-37z" fill="none" stroke="#999" stroke-miterlimit="10" stroke-width="5"/><path d="m741.5 770.5h37v121h-37z" fill="none" stroke="#999" stroke-miterlimit="10" stroke-width="5"/><path d="m1552 1573h37v118h-37z" fill="none" stroke="#999" stroke-miterlimit="10" stroke-width="5" transform="matrix(0 1 -1 0 3202.5 61.5)"/><path d="m1235.5 1524.5h37v215h-37z" fill="none" stroke="#999" stroke-miterlimit="10" stroke-width="5" transform="matrix(0 1 -1 0 2886 378)"/><path d="m923.5 1524.5h37v215h-37z" fill="none" stroke="#999" stroke-miterlimit="10" stroke-width="5" transform="matrix(0 1 -1 0 2574 690)"/><path d="m1235.5 856.5h37v215h-37z" fill="none" stroke="#999" stroke-miterlimit="10" stroke-width="5" transform="matrix(0 1 -1 0 2218 -290)"/><path d="m923.5 856.5h37v215h-37z" fill="none" stroke="#999" stroke-miterlimit="10" stroke-width="5" transform="matrix(0 1 -1 0 1906 22)"/><path d="m606 1572h37v120h-37z" fill="none" stroke="#999" stroke-miterlimit="10" stroke-width="5" transform="matrix(0 1 -1 0 2256.5 1007.5)"/><path d="m1388.5 1255.5h97v97h-97z" fill="none" stroke="#999" stroke-miterlimit="10" stroke-width="5"/><path d="m1388.5 1835.5h97v36h-97z" fill="none" stroke="#999" stroke-miterlimit="10" stroke-width="5"/><path d="m711.5 1835.5h97v36h-97z" fill="none" stroke="#999" stroke-miterlimit="10" stroke-width="5"/><path d="m711.5 734.5h97v36h-97z" fill="none" stroke="#999" stroke-miterlimit="10" stroke-width="5"/><path d="m1418.5 770.5h37v118h-37z" fill="none" stroke="#999" stroke-miterlimit="10" stroke-width="5"/><path d="m1388.5 734.5h97v36h-97z" fill="none" stroke="#999" stroke-miterlimit="10" stroke-width="5"/><path d="m1599 1617h97v36h-97z" fill="none" stroke="#999" stroke-miterlimit="10" stroke-width="5" transform="matrix(0 1 -1 0 3282.5 -12.5)"/><path d="m1552 905h37v118h-37z" fill="none" stroke="#999" stroke-miterlimit="10" stroke-width="5" transform="matrix(0 1 -1 0 2534.5 -606.5)"/><path d="m1599 949h97v36h-97z" fill="none" stroke="#999" stroke-miterlimit="10" stroke-width="5" transform="matrix(0 1 -1 0 2614.5 -680.5)"/><path d="m498 1617h97v36h-97z" fill="none" stroke="#999" stroke-miterlimit="10" stroke-width="5" transform="matrix(0 1 -1 0 2181.5 1088.5)"/><path d="m606 904h37v120h-37z" fill="none" stroke="#999" stroke-miterlimit="10" stroke-width="5" transform="matrix(0 1 -1 0 1588.5 339.5)"/><path d="m498 949h97v36h-97z" fill="none" stroke="#999" stroke-miterlimit="10" stroke-width="5" transform="matrix(0 1 -1 0 1513.5 420.5)"/><path d="m714.5 1255.5h97v97h-97z" fill="none" stroke="#999" stroke-miterlimit="10" stroke-width="5"/><path d="m1049.5 1590.5h97v97h-97z" fill="none" stroke="#999" stroke-miterlimit="10" stroke-width="5"/><path d="m1049.5 1481.5h97v62h-97z" fill="none" stroke="#999" stroke-miterlimit="10" stroke-width="5"/><path d="m840 1272h97v62h-97z" fill="none" stroke="#999" stroke-miterlimit="10" stroke-width="5" transform="matrix(0 -1 1 0 -414.5 2191.5)"/><path d="m1258 1272h97v62h-97z" fill="none" stroke="#999" stroke-miterlimit="10" stroke-width="5" transform="matrix(0 -1 1 0 3.5 2609.5)"/><path d="m969.5 1741.5h257v130h-257z" fill="none" stroke="#999" stroke-miterlimit="10" stroke-width="5"/><path d="m1472 1239h257v130h-257z" fill="none" stroke="#999" stroke-miterlimit="10" stroke-width="5" transform="matrix(0 1 -1 0 2904.5 -296.5)"/><path d="m465 1239h257v130h-257z" fill="none" stroke="#999" stroke-miterlimit="10" stroke-width="5" transform="matrix(0 1 -1 0 1897.5 710.5)"/><path d="m1146.6 1184.2h-98.9l-70 70v98.9l70 69.9h98.9l69.9-69.9v-98.9z" fill="none" stroke="#999" stroke-miterlimit="10" stroke-width="5"/><path d="m1490.5 1871.5h-787l-175-175v-787l175-175h787l175 175v787z" fill="none" stroke="#fff" stroke-miterlimit="10" stroke-width="8"/></svg>