<svg enable-background="new 0 0 2795 2628" viewBox="0 0 2795 2628" xmlns="http://www.w3.org/2000/svg"><path d="m0 0h2795v2628h-2795z" fill="#151e39"/><path d="m1925 2336h-932" fill="none" stroke="#1bacfb" stroke-miterlimit="10" stroke-width="6"/><path d="m993 2308v55" fill="none" stroke="#1bacfb" stroke-miterlimit="10" stroke-width="6"/><path d="m1925 2308v55" fill="none" stroke="#1bacfb" stroke-miterlimit="10" stroke-width="6"/><path d="m653 863v-583" fill="none" stroke="#1bacfb" stroke-miterlimit="10" stroke-width="6"/><path d="m681 280h-55" fill="none" stroke="#1bacfb" stroke-miterlimit="10" stroke-width="6"/><path d="m681 863h-55" fill="none" stroke="#1bacfb" stroke-miterlimit="10" stroke-width="6"/><path d="m995 226h-289" fill="none" stroke="#1bacfb" stroke-miterlimit="10" stroke-width="6"/><path d="m706 198v55" fill="none" stroke="#1bacfb" stroke-miterlimit="10" stroke-width="6"/><path d="m995 198v55" fill="none" stroke="#1bacfb" stroke-miterlimit="10" stroke-width="6"/><path d="m2340 280v1957" fill="none" stroke="#1bacfb" stroke-miterlimit="10" stroke-width="6"/><path d="m2312 2237h55" fill="none" stroke="#1bacfb" stroke-miterlimit="10" stroke-width="6"/><path d="m2312 280h55" fill="none" stroke="#1bacfb" stroke-miterlimit="10" stroke-width="6"/><path d="m160.7 2133-9.9-24.8v35.6h-9.7v-50.4h14.1l11 28.6 11.2-28.6h13.5v50.4h-9.9v-35.6l-9.6 24.8z" fill="#1bacfb"/><path d="m231.6 2130.1h-24.6c.5 3.7 3.4 6.6 7.6 6.6 2.7 0 5.3-1.2 6.6-3.4l9.7 1c-3 7.1-9.1 10.4-16.5 10.4-9.9 0-17.3-7.3-17.3-17.4s7.3-17.4 17.1-17.4c9.1 0 17.3 5.9 17.3 19.7v.5zm-24.7-6.3h14.8c-.5-3.3-3.3-6-7.3-6s-6.8 2.5-7.5 6z" fill="#1bacfb"/><path d="m243.7 2127.4-10.4-16.6h10.8l5.8 9.9 6-9.9h10.5l-10.4 16.3 10.6 16.6h-10.9l-6-9.9-5.8 9.9h-10.8z" fill="#1bacfb"/><path d="m282.6 2143.8h-9.4v-25.1h-4.6v-7.9h14zm-5.1-50.4c3.4 0 6 2.7 6 6 0 3.4-2.7 6-6 6s-6-2.6-6-6c0-3.2 2.7-6 6-6z" fill="#1bacfb"/><path d="m297.9 2127.4c0 5.2 3.4 9 8.3 9 3.5 0 6-1.9 7.3-5l8.8 2.7c-2.2 6.6-8.6 10.7-16.1 10.7-9.8 0-17.6-7.3-17.6-17.4s7.8-17.4 17.6-17.4c7.5 0 14 4.2 16.1 10.7l-8.8 2.7c-1.2-3-3.8-5-7.3-5-4.9 0-8.3 3.8-8.3 9z" fill="#1bacfb"/><path d="m325.7 2127.4c0-10.1 7.8-17.4 17.6-17.4s17.6 7.3 17.6 17.4-7.8 17.4-17.6 17.4-17.6-7.4-17.6-17.4zm9.4 0c0 5.1 3.4 9 8.3 9 4.8 0 8.2-3.9 8.2-9 0-5.2-3.4-9-8.2-9-4.9 0-8.3 3.8-8.3 9z" fill="#1bacfb"/><path d="m405.9 2135.5c6.7 0 11.8-3.6 13.7-9.6h11c-3 11.9-13.3 18.8-24.7 18.8-14.8 0-26.3-10.9-26.3-26.1s11.4-26.1 26.3-26.1c11.4 0 21.7 6.9 24.7 18.8h-11c-1.9-6-7-9.6-13.7-9.6-9.5 0-15.8 7.2-15.8 16.8s6.3 17 15.8 17z" fill="#1bacfb"/><path d="m447.7 2143.8h-9.4v-25.1h-4.6v-7.9h14zm-5.1-50.4c3.4 0 6 2.7 6 6 0 3.4-2.7 6-6 6s-6-2.6-6-6c0-3.2 2.7-6 6-6z" fill="#1bacfb"/><path d="m467.6 2098.3v12.5h7.1v7.9h-7.1v14.9c0 2.1 1.7 2.4 3.1 2.4 2.4 0 4.3-.2 4.3-.2v8s-4.5.4-7.3.4c-4.7 0-9.5-.8-9.5-7.4v-18.1h-5.2v-7.9h5.2v-12.5z" fill="#1bacfb"/><path d="m491.6 2143.8h-2.4l-11.3-33h10.4l7 23.5 7.1-23.5h10.2l-13.2 38.2c-1.7 4.8-4.2 7.4-10.3 7.4h-6.5v-7.8h4.6c1.9 0 3-.7 3.7-2.6z" fill="#1bacfb"/><path d="m520.9 2132.2c3.6 0 6.5 2.7 6.5 6.3 0 1-.4 2.7-.9 3.6l-5.7 10.6h-7.6l4.1-9.1c-1.7-1.1-2.7-3-2.7-5.1 0-3.5 2.7-6.3 6.3-6.3z" fill="#1bacfb"/><path d="m570.1 2133-9.9-24.8v35.6h-9.7v-50.4h14.1l11 28.6 11.2-28.6h13.5v50.4h-9.9v-35.6l-9.6 24.8z" fill="#1bacfb"/><path d="m641 2130.1h-24.6c.5 3.7 3.4 6.6 7.6 6.6 2.7 0 5.3-1.2 6.6-3.4l9.7 1c-3 7.1-9.1 10.4-16.5 10.4-9.9 0-17.3-7.3-17.3-17.4s7.3-17.4 17.1-17.4c9.1 0 17.3 5.9 17.3 19.7v.5zm-24.7-6.3h14.7c-.5-3.3-3.3-6-7.3-6s-6.7 2.5-7.4 6z" fill="#1bacfb"/><path d="m653.1 2127.4-10.4-16.6h10.8l5.8 9.9 6-9.9h10.5l-10.4 16.3 10.6 16.6h-10.9l-6-9.9-5.8 9.9h-10.8z" fill="#1bacfb"/><path d="m692 2143.8h-9.4v-25.1h-4.6v-7.9h14zm-5.1-50.4c3.4 0 6 2.7 6 6 0 3.4-2.7 6-6 6s-6-2.6-6-6c0-3.2 2.7-6 6-6z" fill="#1bacfb"/><path d="m707.3 2127.4c0 5.2 3.4 9 8.3 9 3.5 0 6-1.9 7.3-5l8.8 2.7c-2.2 6.6-8.6 10.7-16.1 10.7-9.8 0-17.6-7.3-17.6-17.4s7.8-17.4 17.6-17.4c7.5 0 14 4.2 16.1 10.7l-8.8 2.7c-1.2-3-3.8-5-7.3-5-4.9 0-8.3 3.8-8.3 9z" fill="#1bacfb"/><path d="m735.1 2127.4c0-10.1 7.8-17.4 17.6-17.4s17.6 7.3 17.6 17.4-7.8 17.4-17.6 17.4-17.6-7.4-17.6-17.4zm9.4 0c0 5.1 3.4 9 8.3 9 4.8 0 8.2-3.9 8.2-9 0-5.2-3.4-9-8.2-9-4.9 0-8.3 3.8-8.3 9z" fill="#1bacfb"/><path d="m216.9 1925.4v17.6h-29.7v81.8h-19.6v-81.8h-29.6v-17.6z" fill="#1bacfb"/><path d="m275.9 1997.7h-48.4c1 7.2 6.7 13.1 14.9 13.1 5.4 0 10.5-2.3 13.1-6.7l19.2 2c-5.8 13.9-18 20.4-32.5 20.4-19.5 0-34.1-14.3-34.1-34.2s14.3-34.2 33.8-34.2c17.9 0 34.1 11.6 34.1 38.9v.7zm-48.9-12.3h29.1c-1-6.5-6.5-11.9-14.3-11.9-7.8-.1-13.4 4.9-14.8 11.9z" fill="#1bacfb"/><path d="m282.7 1992.3c0-19.9 15.5-34.2 34.8-34.2s34.8 14.3 34.8 34.2-15.5 34.2-34.8 34.2-34.8-14.3-34.8-34.2zm18.4 0c0 10.1 6.7 17.8 16.3 17.8 9.5 0 16.2-7.7 16.2-17.8 0-10.2-6.7-17.8-16.2-17.8-9.6.1-16.3 7.6-16.3 17.8z" fill="#1bacfb"/><path d="m387.3 1935.1v24.7h14.1v15.6h-14.1v29.4c0 4.1 3.3 4.7 6.1 4.7 4.7 0 8.5-.4 8.5-.4v15.8s-8.9.9-14.3.9c-9.2 0-18.7-1.6-18.7-14.6v-35.6h-10.2v-15.6h10.2v-24.7h18.4z" fill="#1bacfb"/><path d="m436.5 2024.8h-18.5v-49.4h-9.1v-15.6h27.5v65zm-10.1-99.4c6.7 0 11.9 5.4 11.9 11.9 0 6.7-5.3 11.8-11.9 11.8-6.5 0-11.8-5.1-11.8-11.8 0-6.5 5.2-11.9 11.8-11.9z" fill="#1bacfb"/><path d="m490 1958.1c14.1 0 24.1 8.9 24.1 24.1v42.6h-18.5v-37.9c0-8.2-5.3-11.6-11.1-11.6-5.4 0-10.2 3-13.8 7.4v42.2h-18.5v-99.4h18.2v36.9c0 2.3-.3 5.1-.3 5.1 5.1-6.1 12.5-9.4 19.9-9.4z" fill="#1bacfb"/><path d="m528.3 2001v-41.2h18.5v37.8c0 8.9 6 12.5 12.5 12.5 6.7 0 12.5-3.5 12.5-12.5v-37.8h18.3v41.2c0 13.6-10.8 25.6-30.8 25.6-19.9-.1-31-12-31-25.6z" fill="#1bacfb"/><path d="m641.1 1981.5c0-4.7-3.7-7.7-10.8-7.7-6.5 0-14.8 3.3-19.6 6.1l-7.2-13.9s12.1-8 27.8-8c14.8 0 28.3 6.8 28.3 24v42.7h-18.5v-6.1c-3.4 5.1-10.8 7.8-18.2 7.8-13.8 0-22.7-9.8-22.7-20.4 0-12.4 9.1-20 23.6-20h12.8c3.1 0 4.5-1.4 4.5-3.8zm0 20.1v-4.7c-1.1 1.1-3.1 1.4-5.7 1.4h-7c-5.8 0-9.2 2.6-9.2 7.1 0 4.4 3.5 7.7 9.2 7.7 6.7 0 12.7-3.5 12.7-11.5z" fill="#1bacfb"/><path d="m689.1 1992.3c0 10.2 6.7 17.8 16.3 17.8 6.8 0 11.9-3.8 14.3-9.9l17.3 5.4c-4.3 12.9-17 21-31.8 21-19.3 0-34.6-14.3-34.6-34.2s15.3-34.2 34.6-34.2c14.8 0 27.5 8.2 31.8 21.2l-17.3 5.3c-2.4-6-7.5-9.9-14.3-9.9-9.7-.2-16.3 7.3-16.3 17.5z" fill="#1bacfb"/><path d="m784.1 1981.5c0-4.7-3.7-7.7-10.8-7.7-6.5 0-14.8 3.3-19.6 6.1l-7.2-13.9s12.1-8 27.8-8c14.8 0 28.3 6.8 28.3 24v42.7h-18.5v-6.1c-3.4 5.1-10.8 7.8-18.2 7.8-13.8 0-22.7-9.8-22.7-20.4 0-12.4 9.1-20 23.6-20h12.8c3.1 0 4.5-1.4 4.5-3.8zm0 20.1v-4.7c-1.1 1.1-3.1 1.4-5.7 1.4h-7c-5.8 0-9.2 2.6-9.2 7.1 0 4.4 3.5 7.7 9.2 7.7 6.7 0 12.7-3.5 12.7-11.5z" fill="#1bacfb"/><path d="m855.4 1958.1c14.1 0 24.1 8.9 24.1 24.1v42.6h-18.5v-37.9c0-8.2-5.3-11.6-11.1-11.6-5.4 0-10.2 3-13.8 7.4v42.2h-18.5v-65h18v2.6c0 2.3-.3 5.1-.3 5.1 5.1-6.2 12.5-9.5 20.1-9.5z" fill="#1bacfb"/><path d="m1346.1 2379.4h23.6v51h11.9v10.6h-36.2v-10.6h11.9v-40.4h-11.2z" fill="#1bacfb"/><path d="m1409.6 2432c5.9 0 8.1-4.6 8.1-10.6 0-6.2-2.4-10.7-8.3-10.7-3.2 0-5.6 1.2-7 2.6l-10.3-1.1v-32.6h36.2v10.6h-25.4v12.8h.4c2.1-1.6 6.1-2.3 8.8-2.3 11.7 0 18.4 8.4 18.4 20.2 0 12.5-7.1 21.5-20.5 21.5-13.1 0-20.5-7.8-20.5-18.7v-2.7h12.5v2.6c0 4.2 1.9 8.4 7.6 8.4z" fill="#1bacfb"/><path d="m1478.9 2410.2c0 21.9-8.5 31.9-21.5 31.9s-21.6-10-21.6-31.9c0-21.6 8.5-31.8 21.6-31.8 13 0 21.5 10.2 21.5 31.8zm-21.5 20.6c6.1 0 9-7 9-20.7 0-13.6-2.9-20.6-9-20.6-6.2 0-9 7-9 20.6 0 13.8 2.9 20.7 9 20.7z" fill="#1bacfb"/><path d="m1526.3 2410.2c0 21.9-8.5 31.9-21.5 31.9s-21.6-10-21.6-31.9c0-21.6 8.5-31.8 21.6-31.8 13 0 21.5 10.2 21.5 31.8zm-21.4 20.6c6.1 0 9-7 9-20.7 0-13.6-2.9-20.6-9-20.6-6.2 0-9 7-9 20.6 0 13.8 2.8 20.7 9 20.7z" fill="#1bacfb"/><path d="m1586.4 2417.4c0-4.9-3.2-7-6.7-7-3.3 0-6.2 1.8-8.4 4.6v26.1h-11.4v-23.7c0-4.8-3.1-7-6.7-7-3.3 0-6.2 1.8-8.4 4.6v26.1h-11.4v-40.3h11.2v1.6c0 1.4-.2 3.2-.2 3.2 3-3.7 7.5-5.8 12.1-5.8 6 0 10.6 2.6 12.9 7.3 3.3-4.7 7.9-7.3 13.6-7.3 8.7 0 14.9 5.5 14.9 15v26.4h-11.4v-23.8z" fill="#1bacfb"/><path d="m2386.3 1177.5s10.4-9.2 18.2-16.5c7.7-7.3 9.4-11.8 9.4-16.8 0-4.2-2.9-7.9-8.2-7.9-4.7 0-8.2 2.8-8.2 7.3 0 1.6.4 3.6 1.6 6.4l-11.3 2c-1.8-3.6-2.3-6.5-2.3-9.5 0-8.6 7.2-17.1 20.3-17.1 13.5 0 20.6 8.8 20.6 18.1 0 7.3-2.4 14.3-17.4 27.5l-7.3 6.4h25.5v10.6h-41v-10.5z" fill="#1bacfb"/><path d="m2453.6 1179c5.9 0 8.1-4.6 8.1-10.6 0-6.2-2.4-10.7-8.3-10.7-3.2 0-5.6 1.2-7 2.6l-10.3-1.1v-32.6h36.2v10.6h-25.4v12.8h.4c2.1-1.6 6.1-2.3 8.8-2.3 11.7 0 18.4 8.4 18.4 20.2 0 12.5-7.1 21.5-20.5 21.5-13.1 0-20.5-7.8-20.5-18.7v-2.7h12.5v2.6c0 4.2 1.9 8.4 7.6 8.4z" fill="#1bacfb"/><path d="m2522.9 1157.2c0 21.9-8.5 31.9-21.5 31.9s-21.6-10-21.6-31.9c0-21.6 8.5-31.8 21.6-31.8 13 0 21.5 10.2 21.5 31.8zm-21.5 20.6c6.1 0 9-7 9-20.7 0-13.6-2.9-20.6-9-20.6-6.2 0-9 7-9 20.6 0 13.8 2.9 20.7 9 20.7z" fill="#1bacfb"/><path d="m2570.3 1157.2c0 21.9-8.5 31.9-21.5 31.9s-21.6-10-21.6-31.9c0-21.6 8.5-31.8 21.6-31.8 13 0 21.5 10.2 21.5 31.8zm-21.4 20.6c6.1 0 9-7 9-20.7 0-13.6-2.9-20.6-9-20.6-6.2 0-9 7-9 20.6 0 13.8 2.8 20.7 9 20.7z" fill="#1bacfb"/><path d="m2630.4 1164.4c0-4.9-3.2-7-6.7-7-3.3 0-6.2 1.8-8.4 4.6v26.1h-11.4v-23.7c0-4.8-3.1-7-6.7-7-3.3 0-6.2 1.8-8.4 4.6v26.1h-11.4v-40.3h11.2v1.6c0 1.4-.2 3.2-.2 3.2 3-3.7 7.5-5.8 12.1-5.8 6 0 10.6 2.6 12.9 7.3 3.3-4.7 7.9-7.3 13.6-7.3 8.7 0 14.9 5.5 14.9 15v26.4h-11.4v-23.8z" fill="#1bacfb"/><path d="m402.7 609 21.9-51h-27.7v-10.6h39.6v10.6l-20.2 51z" fill="#1bacfb"/><path d="m463.6 600c5.9 0 8.1-4.6 8.1-10.6 0-6.2-2.4-10.7-8.3-10.7-3.2 0-5.6 1.2-7 2.6l-10.3-1.1v-32.6h36.2v10.4h-25.4v12.8h.4c2.1-1.6 6.1-2.3 8.8-2.3 11.7 0 18.4 8.4 18.4 20.2 0 12.5-7.1 21.5-20.5 21.5-13.1 0-20.5-7.8-20.5-18.7v-2.7h12.5v2.6c0 4.4 1.9 8.6 7.6 8.6z" fill="#1bacfb"/><path d="m532.9 578.2c0 21.9-8.5 31.9-21.5 31.9s-21.6-10-21.6-31.9c0-21.6 8.5-31.8 21.6-31.8 13 0 21.5 10.2 21.5 31.8zm-21.5 20.6c6.1 0 9-7 9-20.7 0-13.6-2.9-20.6-9-20.6-6.2 0-9 7-9 20.6 0 13.8 2.9 20.7 9 20.7z" fill="#1bacfb"/><path d="m593 585.4c0-4.9-3.2-7-6.7-7-3.3 0-6.2 1.8-8.4 4.6v26h-11.4v-23.7c0-4.8-3.1-7-6.7-7-3.3 0-6.2 1.8-8.4 4.6v26.1h-11.4v-40.3h11.2v1.6c0 1.4-.2 3.2-.2 3.2 3-3.7 7.5-5.8 12.1-5.8 6 0 10.6 2.6 12.9 7.3 3.3-4.7 7.9-7.3 13.6-7.3 8.7 0 14.9 5.5 14.9 15v26.3h-11.5z" fill="#1bacfb"/><path d="m763.2 176c5.9 0 8.1-4.6 8.1-10.6 0-6.2-2.4-10.7-8.3-10.7-3.2 0-5.6 1.2-7 2.6l-10.3-1.1v-32.6h36.2v10.4h-25.4v12.8h.4c2.1-1.6 6.1-2.3 8.8-2.3 11.7 0 18.4 8.4 18.4 20.2 0 12.5-7.1 21.5-20.5 21.5-13.1 0-20.5-7.8-20.5-18.7v-2.7h12.5v2.6c0 4.4 1.9 8.6 7.6 8.6z" fill="#1bacfb"/><path d="m832.5 154.2c0 21.9-8.5 31.9-21.5 31.9s-21.6-10-21.6-31.9c0-21.6 8.5-31.8 21.6-31.8 12.9 0 21.5 10.2 21.5 31.8zm-21.5 20.6c6.1 0 9-7 9-20.7 0-13.6-2.9-20.6-9-20.6-6.2 0-9 7-9 20.6 0 13.8 2.8 20.7 9 20.7z" fill="#1bacfb"/><path d="m879.9 154.2c0 21.9-8.5 31.9-21.5 31.9s-21.6-10-21.6-31.9c0-21.6 8.5-31.8 21.6-31.8 13 0 21.5 10.2 21.5 31.8zm-21.5 20.6c6.1 0 9-7 9-20.7 0-13.6-2.9-20.6-9-20.6-6.2 0-9 7-9 20.6 0 13.8 2.9 20.7 9 20.7z" fill="#1bacfb"/><path d="m940 161.4c0-4.9-3.2-7-6.7-7-3.3 0-6.2 1.8-8.4 4.6v26h-11.4v-23.7c0-4.8-3.1-7-6.7-7-3.3 0-6.2 1.8-8.4 4.6v26.1h-11.4v-40.3h11.2v1.6c0 1.4-.2 3.2-.2 3.2 3-3.7 7.5-5.8 12.1-5.8 6 0 10.6 2.6 12.9 7.3 3.3-4.7 7.9-7.3 13.6-7.3 8.7 0 14.9 5.5 14.9 15v26.3h-11.5z" fill="#1bacfb"/><path d="m2060.5 795.4v-2.7h12.5v2.6c0 4.4 1.9 8.6 7.7 8.6 5.6 0 8.1-4.1 8.1-9.8s-3.3-9.9-9.9-9.9c-1.8 0-5.2.3-6.4.6v-10.9l14.1-12.1h-23.1v-10.6h37v11.7l-15.9 12.8c10 .3 17.2 8.4 17.2 18.1 0 11.8-8.3 20.1-20.6 20.1-13.3.2-20.7-7.6-20.7-18.5z" fill="#1bacfb"/><path d="m2115.1 813 21.9-51h-27.7v-10.6h39.6v10.6l-20.2 51z" fill="#1bacfb"/><path d="m2176.1 804c5.9 0 8.1-4.6 8.1-10.6 0-6.2-2.4-10.7-8.3-10.7-3.2 0-5.6 1.2-7 2.6l-10.3-1.1v-32.6h36.2v10.4h-25.4v12.8h.4c2.1-1.6 6.1-2.3 8.8-2.3 11.7 0 18.4 8.4 18.4 20.2 0 12.5-7.1 21.5-20.5 21.5-13.1 0-20.5-7.8-20.5-18.7v-2.7h12.5v2.6c-.1 4.4 1.8 8.6 7.6 8.6z" fill="#1bacfb"/><path d="m2258 789.4c0-4.9-3.2-7-6.7-7-3.3 0-6.2 1.8-8.4 4.6v26h-11.4v-23.7c0-4.8-3.1-7-6.7-7-3.3 0-6.2 1.8-8.4 4.6v26.1h-11.4v-40.3h11.2v1.6c0 1.4-.2 3.2-.2 3.2 3-3.7 7.5-5.8 12.1-5.8 6 0 10.6 2.6 12.9 7.3 3.3-4.7 7.9-7.3 13.6-7.3 8.7 0 14.9 5.5 14.9 15v26.3h-11.5z" fill="#1bacfb"/><g fill="none" stroke-miterlimit="10"><path d="m1916.7 772.9v-492.5h-919.9l-290.8 339.5 290.8 243.3v1371.8h919.8v-1008.6" stroke="#fff" stroke-width="8"/><path d="m1432.6 2235h53.1" stroke="#999" stroke-width="6"/><path d="m1577.5 915.2h186.5v186.5h-186.5z" stroke="#999" stroke-width="6"/><path d="m1612.3 949h115.9v115.9h-115.9z" stroke="#999" stroke-width="6"/><path d="m1644.2 983.8h55.1v55.1h-55.1z" stroke="#999" stroke-width="6"/><path d="m1699.3 1038.8 64.7 62.8" stroke="#999" stroke-width="6"/><path d="m1764 915.2-64.7 68.6" stroke="#999" stroke-width="6"/><path d="m1577.5 915.2 66.7 68.6" stroke="#999" stroke-width="6"/><path d="m1644.2 1038.8-66.7 62.8" stroke="#999" stroke-width="6"/><path d="m1644.2 1024.3h-66.7v-28h43.4 23.3z" stroke="#999" stroke-width="6"/><path d="m1622.9 996.3v28" stroke="#999" stroke-width="6"/><path d="m1633.6 996.3v28" stroke="#999" stroke-width="6"/><path d="m1600.7 996.3v28" stroke="#999" stroke-width="6"/><path d="m1589.1 996.3v28" stroke="#999" stroke-width="6"/><path d="m1387.2 357.7h140.1v140.1h-140.1z" stroke="#999" stroke-width="6" transform="matrix(0 -1 1 0 1029.5159 1884.9359)"/><path d="m1412.6 384.5h87.1v87.1h-87.1z" stroke="#999" stroke-width="6" transform="matrix(0 -1 1 0 1028.0641 1884.21)"/><path d="m1438.7 406.3h41.4v41.4h-41.4z" stroke="#999" stroke-width="6" transform="matrix(0 -1 1 0 1032.4194 1886.3877)"/><path d="m1480.1 406.3 47.2-48.6" stroke="#999" stroke-width="6"/><path d="m1387.2 357.7 51.5 48.6" stroke="#999" stroke-width="6"/><path d="m1387.2 497.8 51.5-50.1" stroke="#999" stroke-width="6"/><path d="m1480.1 447.7 47.2 50.1" stroke="#999" stroke-width="6"/><path d="m1469.2 447.7v50.1h-21v-32.6-17.5z" stroke="#999" stroke-width="6"/><path d="m1448.2 463.6h21" stroke="#999" stroke-width="6"/><path d="m1448.2 455.7h21" stroke="#999" stroke-width="6"/><path d="m1448.2 480.3h21" stroke="#999" stroke-width="6"/><path d="m1448.2 489h21" stroke="#999" stroke-width="6"/><path d="m1801.7 863h-8.2-233.4v15.4h233.4v260h-233.4v15.4h233.4 8.2 7.2v-290.8z" stroke="#999" stroke-width="6"/><path d="m1869.3 1633.1h-383.6v-918.3h83.1v-192.5h-218.4v192.5h82.1v918.3h-378.8-10.6v-746-34.8l255.1-537.2h3.5 571.4l-1.9 496.6c127.8-4.7 216.8 85.2 216.8 189.3s-79 191-219.7 187.6l1 56v377.6z" stroke="#999" stroke-width="6"/><path d="m1869.3 1685.5v500.2h-383.6v-8.7-500.5h383.6z" stroke="#999" stroke-width="6"/><path d="m1251.6 315.1h-231.6l-252.1 299.2 245.5 207.1 242.4-506.3z" stroke="#999" stroke-width="6"/><path d="m996.8 1676.5v-43.4" stroke="#999" stroke-width="6"/><path d="m1043.2 1676.5v509.2h389.4v-6.7-502.5h-380.1z" stroke="#999" stroke-width="6"/><path d="m1370.8 542.2h25.1v29h-25.1z" stroke="#999" stroke-width="6"/><path d="m1370.8 581.8h25.1v29h-25.1z" stroke="#999" stroke-width="6"/><path d="m1421 583.8h25.1v29h-25.1z" stroke="#999" stroke-width="6"/><path d="m1462.5 583.8h25.1v29h-25.1z" stroke="#999" stroke-width="6"/><path d="m1389.1 743.2h25.1v29h-25.1z" stroke="#999" stroke-width="6"/><path d="m1389.1 803.1h25.1v29h-25.1z" stroke="#999" stroke-width="6"/><path d="m1389.1 882.3h25.1v29h-25.1z" stroke="#999" stroke-width="6"/><path d="m1499.3 882.3h25.1v29h-25.1z" stroke="#999" stroke-width="6"/><path d="m1499.3 806.9h25.1v29h-25.1z" stroke="#999" stroke-width="6"/><path d="m1499.3 746.1h25.1v29h-25.1z" stroke="#999" stroke-width="6"/><path d="m1499.3 975.1h25.1v29h-25.1z" stroke="#999" stroke-width="6"/><path d="m1389.1 975.1h25.1v72.5h-25.1z" stroke="#999" stroke-width="6"/><path d="m1370.8 621.4h25.1v29h-25.1z" stroke="#999" stroke-width="6"/><path d="m1517.6 542.2h25.1v29h-25.1z" stroke="#999" stroke-width="6"/><path d="m1517.6 581.8h25.1v29h-25.1z" stroke="#999" stroke-width="6"/><path d="m1517.6 621.4h25.1v29h-25.1z" stroke="#999" stroke-width="6"/><path d="m1517.6 664.9h25.1v29h-25.1z" stroke="#999" stroke-width="6"/><path d="m1370.8 664.9h25.1v29h-25.1z" stroke="#999" stroke-width="6"/><path d="m1250 670.7h66.2v76.3h-66.2z" stroke="#999" stroke-width="6"/><path d="m1298.3 670.7v76.3" stroke="#999" stroke-width="6"/><path d="m1269.3 670.7v76.3" stroke="#999" stroke-width="6"/><path d="m1560.1 1786.7h279.2v331.4h-279.2z" stroke="#999" stroke-width="6"/><path d="m1713.8 1920h74.4v74.4h-74.4z" stroke="#999" stroke-width="6"/><path d="m1731.1 1938.4h39.6v39.6h-39.6z" stroke="#999" stroke-width="6"/><path d="m1560.1 1843.7 228.1 1v226h-228.1" stroke="#999" stroke-width="6"/><path d="m1620 1926.8h41.5v56h-41.5z" stroke="#999" stroke-width="6"/><path d="m1674.1 1938.4h24.2v34.8h-24.2z" stroke="#999" stroke-width="6"/><path d="m1575.6 1801.2h24.2v27.1h-24.2z" stroke="#999" stroke-width="6"/><path d="m1612.3 1801.2h24.2v27.1h-24.2z" stroke="#999" stroke-width="6"/><path d="m1390.1 1527.7h24.2v27.1h-24.2z" stroke="#999" stroke-width="6"/><path d="m1521.5 1316.1h24.2v27.1h-24.2z" stroke="#999" stroke-width="6"/><path d="m1545.6 1369.3h24.2v27.1h-24.2z" stroke="#999" stroke-width="6"/><path d="m1548.5 1500.7h24.2v27.1h-24.2z" stroke="#999" stroke-width="6"/><path d="m1508.9 1500.7h24.2v27.1h-24.2z" stroke="#999" stroke-width="6"/><path d="m1502.2 1390.5h24.2v27.1h-24.2z" stroke="#999" stroke-width="6"/><path d="m1650 1801.2h24.2v27.1h-24.2z" stroke="#999" stroke-width="6"/><path d="m1575.6 2081.4h24.2v27.1h-24.2z" stroke="#999" stroke-width="6"/><path d="m1521.5 1980.9h24.2v36.7h-24.2z" stroke="#999" stroke-width="6"/><path d="m1521.5 1929.7h24.2v36.7h-24.2z" stroke="#999" stroke-width="6"/><path d="m1521.5 1880.4h24.2v36.7h-24.2z" stroke="#999" stroke-width="6"/><path d="m1801.7 1980.9h24.2v36.7h-24.2z" stroke="#999" stroke-width="6"/><path d="m1801.7 1929.7h24.2v36.7h-24.2z" stroke="#999" stroke-width="6"/><path d="m1801.7 1880.4h24.2v36.7h-24.2z" stroke="#999" stroke-width="6"/><path d="m1612.3 2081.4h24.2v27.1h-24.2z" stroke="#999" stroke-width="6"/><path d="m1650 2081.4h24.2v27.1h-24.2z" stroke="#999" stroke-width="6"/><path d="m1193 1801.2h84.1v146.9h-84.1z" stroke="#999" stroke-width="6"/><path d="m1130.6 951.4h84.1v146.9h-84.1z" stroke="#999" stroke-width="6" transform="matrix(0 1 -1 0 2197.5039 -147.8521)"/><path d="m1763.6 1242.8h49.8v87h-49.8z" stroke="#999" stroke-width="6" transform="matrix(-.2737 .9618 -.9618 -.2737 3515.1931 -81.8012)"/><g opacity=".5" stroke="#1bacfb" stroke-width="8"><path d="m997 280v6"/><path d="m997 298.1v552.8" stroke-dasharray="12.1489 12.1489"/><path d="m997 857v6"/></g><g opacity=".5" stroke="#1bacfb" stroke-width="8"><path d="m1918 779v6"/><path d="m1918 797.1v403.9" stroke-dasharray="12.0571 12.0571"/><path d="m1918 1207v6"/></g><g opacity=".5" stroke="#1bacfb" stroke-width="8"><path d="m1900.5 1229c-2 0-4 0-6-.1"/><path d="m1882.5 1228.3c-117.8-9.2-210.5-107.6-210.5-227.8 0-122.2 95.9-222 216.5-228.2" stroke-dasharray="11.9641 11.9641"/><path d="m1894.5 772.1c2-.1 4-.1 6-.1"/></g><path d="m1916.1 775.2c120.6 4.8 216.9 104 216.9 225.8 0 121.6-96 220.7-216.3 225.8" stroke="#fff" stroke-linecap="round" stroke-width="6"/><path d="m1916.1 993.8 133.9-172.8" stroke="#1bacfb" stroke-width="6"/></g><circle cx="1918.5" cy="993.5" fill="#1bacfb" r="13.5"/><path d="m424.8 1449c0-15.5-12.5-28-28-28s-28 12.5-28 28c0 4.5 1.1 8.8 3 12.6-11 3.8-18.9 14.2-18.9 26.5 0 15.5 12.5 28 28 28 13.6 0 24.9-9.7 27.4-22.5 8.1-1.2 14.3-8.2 14.3-16.6 0-4.1-1.4-7.8-3.9-10.7 3.9-4.8 6.1-10.8 6.1-17.3z" fill="none" opacity=".31" stroke="#fff" stroke-miterlimit="10" stroke-width="5"/><path d="m838.8 1391c0-15.5-12.5-28-28-28s-28 12.5-28 28c0 4.5 1.1 8.8 3 12.6-11 3.8-18.9 14.2-18.9 26.5 0 15.5 12.5 28 28 28 13.6 0 24.9-9.7 27.4-22.5 8.1-1.2 14.3-8.2 14.3-16.6 0-4.1-1.4-7.8-3.9-10.7 3.9-4.8 6.1-10.8 6.1-17.3z" fill="none" opacity=".31" stroke="#fff" stroke-miterlimit="10" stroke-width="5"/><path d="m451.7 1313.1c-4.7 14.7 3.3 30.5 18.1 35.2 14.7 4.7 30.5-3.3 35.2-18.1 1.4-4.3 1.7-8.7 1-12.9 11.6-.2 22.3-7.7 26.1-19.4 4.7-14.7-3.3-30.5-18.1-35.2-12.9-4.2-26.6 1.6-33 13-8.1-1.3-16.1 3.4-18.7 11.4-1.2 3.9-1 7.9.4 11.4-5 3.3-9 8.4-11 14.6z" fill="none" opacity=".31" stroke="#fff" stroke-miterlimit="10" stroke-width="5"/><path d="m330.2 1394.3c2.5-3.9 4-8.5 4-13.4 0-13.7-11.1-24.8-24.8-24.8-12.8 0-23.4 9.7-24.7 22.2-6.5 2.4-11.1 8.6-11.1 15.9 0 9.3 7.6 16.9 16.9 16.9 5.2 0 9.8-2.3 12.9-6 1.9.5 3.9.7 6 .7h1c-1.9 3.3-3 7.1-3 11.2 0 12.5 10.1 22.6 22.6 22.6s22.6-10.1 22.6-22.6c-.1-12.5-10-22.5-22.4-22.7z" fill="none" opacity=".31" stroke="#fff" stroke-miterlimit="10" stroke-width="5"/><path d="m397.4 1347.8c5.3-4.1 8.8-10.5 8.8-17.7 0-12.2-9.9-22.2-22.2-22.2-11.4 0-20.8 8.6-22 19.7h-.1c-8.5 0-15.3 6.9-15.3 15.3s6.9 15.3 15.3 15.3h.1c-.8 2.3-1.2 4.8-1.2 7.4 0 12.6 10.2 22.7 22.7 22.7 12.6 0 22.7-10.2 22.7-22.7 0-7.1-3.4-13.6-8.8-17.8z" fill="none" opacity=".31" stroke="#fff" stroke-miterlimit="10" stroke-width="5"/><path d="m270.7 1498.4c-.9 6.6 1.2 13.6 6.3 18.7 8.7 8.7 22.7 8.7 31.4 0 8.1-8.1 8.6-20.8 1.6-29.5 0 0 .1-.1.1-.1 6-6 6-15.7 0-21.7s-15.7-6-21.7 0c0 0-.1.1-.1.1-1.1-2.2-2.5-4.3-4.4-6.1-8.9-8.9-23.3-8.9-32.1 0-8.9 8.9-8.9 23.3 0 32.1 5.2 5.2 12.2 7.4 18.9 6.5z" fill="none" opacity=".31" stroke="#fff" stroke-miterlimit="10" stroke-width="5"/><path d="m674.4 2479.4c14.8-4.5 23.1-20.1 18.6-34.9s-20.1-23.1-34.9-18.6c-4.3 1.3-8.1 3.6-11.2 6.5-6.8-9.4-19.1-13.9-30.8-10.3-14.8 4.5-23.1 20.1-18.6 34.9 3.9 13 16.5 21 29.5 19.7 3.5 7.4 12 11.3 20 8.8 3.9-1.2 7-3.7 9.1-6.8 5.7 2.2 12.1 2.6 18.3.7z" fill="none" opacity=".31" stroke="#fff" stroke-miterlimit="10" stroke-width="5"/><path d="m699.2 2373c4.4 1.3 9.3 1.3 14-.1 13.1-4 20.5-17.9 16.5-31-3.7-12.3-16.1-19.5-28.4-17.2-4.1-5.5-11.5-8.2-18.4-6-8.9 2.7-14 12.2-11.3 21.1 1.5 5 5.1 8.7 9.5 10.6.1 2 .4 4 1 6 .1.3.2.6.3.9-3.7-.9-7.7-.8-11.6.4-11.9 3.6-18.7 16.3-15 28.2s16.3 18.7 28.2 15c11.9-3.6 18.6-16.1 15.2-27.9z" fill="none" opacity=".31" stroke="#fff" stroke-miterlimit="10" stroke-width="5"/><path d="m763.2 2423.7c5.4 3.9 12.6 5.3 19.5 3.3 11.7-3.6 18.3-16 14.8-27.7-3.3-10.9-14.3-17.4-25.3-15.3v-.1c-2.5-8.1-11-12.7-19.1-10.2s-12.7 11-10.2 19.1v.1c-2.5-.1-5 .2-7.4 1-12 3.7-18.8 16.3-15.1 28.4 3.7 12 16.3 18.8 28.4 15.1 6.8-2.2 12-7.3 14.4-13.7z" fill="none" opacity=".31" stroke="#fff" stroke-miterlimit="10" stroke-width="5"/><path d="m582.3 2346.4c-6.6 1.1-12.7 5.1-16.1 11.5-5.8 10.8-1.7 24.2 9.1 30 10.1 5.4 22.4 2.2 28.7-7 0 0 .1 0 .1.1 7.5 4 16.8 1.2 20.7-6.3s1.2-16.8-6.3-20.7c0 0-.1 0-.1-.1 1.8-1.7 3.4-3.7 4.6-5.9 5.9-11.1 1.7-24.8-9.4-30.7s-24.8-1.7-30.7 9.4c-3.4 6.1-3.4 13.5-.6 19.7z" fill="none" opacity=".31" stroke="#fff" stroke-miterlimit="10" stroke-width="5"/><path d="m2541.4 277.4c14.8-4.5 23.1-20.1 18.6-34.9s-20.1-23.1-34.9-18.6c-4.3 1.3-8.1 3.6-11.2 6.5-6.8-9.4-19.1-13.9-30.8-10.3-14.8 4.5-23.1 20.1-18.6 34.9 3.9 13 16.5 21 29.5 19.7 3.5 7.4 12 11.3 20 8.8 3.9-1.2 7-3.7 9.1-6.8 5.7 2.2 12.1 2.6 18.3.7z" fill="none" opacity=".31" stroke="#fff" stroke-miterlimit="10" stroke-width="5"/><path d="m2566.2 171c4.4 1.3 9.3 1.3 14-.1 13.1-4 20.5-17.9 16.5-31-3.7-12.3-16.1-19.5-28.4-17.2-4.1-5.5-11.5-8.2-18.4-6-8.9 2.7-14 12.2-11.3 21.1 1.5 5 5.1 8.7 9.5 10.6.1 2 .4 4 1 6 .1.3.2.6.3.9-3.7-.9-7.7-.8-11.6.4-11.9 3.6-18.7 16.3-15 28.2s16.3 18.7 28.2 15c11.9-3.6 18.6-16.1 15.2-27.9z" fill="none" opacity=".31" stroke="#fff" stroke-miterlimit="10" stroke-width="5"/><path d="m2630.2 221.7c5.4 3.9 12.6 5.3 19.5 3.3 11.7-3.6 18.3-16 14.8-27.7-3.3-10.9-14.3-17.4-25.3-15.3v-.1c-2.5-8.1-11-12.7-19.1-10.2s-12.7 11-10.2 19.1v.1c-2.5-.1-5 .2-7.4 1-12 3.7-18.8 16.3-15.1 28.4 3.7 12 16.3 18.8 28.4 15.1 6.8-2.2 12-7.3 14.4-13.7z" fill="none" opacity=".31" stroke="#fff" stroke-miterlimit="10" stroke-width="5"/><path d="m2449.3 144.4c-6.6 1.1-12.7 5.1-16.1 11.5-5.8 10.8-1.7 24.2 9.1 30 10.1 5.4 22.4 2.2 28.7-7 0 0 .1 0 .1.1 7.5 4 16.8 1.2 20.7-6.3 4-7.5 1.2-16.8-6.3-20.7 0 0-.1 0-.1-.1 1.8-1.7 3.4-3.7 4.6-5.9 5.9-11.1 1.7-24.8-9.4-30.7s-24.8-1.7-30.7 9.4c-3.4 6.1-3.4 13.5-.6 19.7z" fill="none" opacity=".31" stroke="#fff" stroke-miterlimit="10" stroke-width="5"/><path d="m721.7 1379.4c-.9 6.6 1.2 13.6 6.3 18.7 8.7 8.7 22.7 8.7 31.4 0 8.1-8.1 8.6-20.8 1.6-29.5 0 0 .1-.1.1-.1 6-6 6-15.7 0-21.7s-15.7-6-21.7 0c0 0-.1.1-.1.1-1.1-2.2-2.5-4.3-4.4-6.1-8.9-8.9-23.3-8.9-32.1 0s-8.9 23.3 0 32.1c5.2 5.2 12.2 7.4 18.9 6.5z" fill="none" opacity=".31" stroke="#fff" stroke-miterlimit="10" stroke-width="5"/><path d="m2626.8 379c0-15.5-12.5-28-28-28s-28 12.5-28 28c0 4.5 1.1 8.8 3 12.6-11 3.8-18.9 14.2-18.9 26.5 0 15.5 12.5 28 28 28 13.6 0 24.9-9.7 27.4-22.5 8.1-1.2 14.3-8.2 14.3-16.6 0-4.1-1.4-7.8-3.9-10.7 3.9-4.8 6.1-10.8 6.1-17.3z" fill="none" opacity=".31" stroke="#fff" stroke-miterlimit="10" stroke-width="5"/><path d="m2509.7 367.4c-.9 6.6 1.2 13.6 6.3 18.7 8.7 8.7 22.7 8.7 31.4 0 8.1-8.1 8.6-20.8 1.6-29.5 0 0 .1-.1.1-.1 6-6 6-15.7 0-21.7s-15.7-6-21.7 0c0 0-.1.1-.1.1-1.1-2.2-2.5-4.3-4.4-6.1-8.9-8.9-23.3-8.9-32.1 0-8.9 8.9-8.9 23.3 0 32.1 5.2 5.2 12.2 7.4 18.9 6.5z" fill="none" opacity=".31" stroke="#fff" stroke-miterlimit="10" stroke-width="5"/><path d="m411.7 1245.4c-.9 6.6 1.2 13.6 6.3 18.7 8.7 8.7 22.7 8.7 31.4 0 8.1-8.1 8.6-20.8 1.6-29.5 0 0 .1-.1.1-.1 6-6 6-15.7 0-21.7s-15.7-6-21.7 0c0 0-.1.1-.1.1-1.1-2.2-2.5-4.3-4.4-6.1-8.9-8.9-23.3-8.9-32.1 0s-8.9 23.3 0 32.1c5.2 5.2 12.2 7.4 18.9 6.5z" fill="none" opacity=".31" stroke="#fff" stroke-miterlimit="10" stroke-width="5"/><path d="m233.7 357.4c-.9 6.6 1.2 13.6 6.3 18.7 8.7 8.7 22.7 8.7 31.4 0 8.1-8.1 8.6-20.8 1.6-29.5 0 0 .1-.1.1-.1 6-6 6-15.7 0-21.7s-15.7-6-21.7 0c0 0-.1.1-.1.1-1.1-2.2-2.5-4.3-4.4-6.1-8.9-8.9-23.3-8.9-32.1 0s-8.9 23.3 0 32.1c5.2 5.2 12.2 7.4 18.9 6.5z" fill="none" opacity=".31" stroke="#fff" stroke-miterlimit="10" stroke-width="5"/><path d="m516.5 1183.4c-1.9-6.4-6.6-11.9-13.3-14.5-11.4-4.4-24.3 1.3-28.7 12.8-4.1 10.7.6 22.5 10.5 27.6 0 0 0 .1-.1.1-3 7.9.9 16.8 8.8 19.8s16.8-.9 19.8-8.8v-.1c1.9 1.6 4 2.9 6.5 3.8 11.7 4.5 24.9-1.3 29.4-13.1 4.5-11.7-1.3-24.9-13.1-29.4-6.7-2.5-14-1.7-19.8 1.8z" fill="none" opacity=".31" stroke="#fff" stroke-miterlimit="10" stroke-width="5"/><path d="m327.5 265.4c-1.9-6.4-6.6-11.9-13.3-14.5-11.4-4.4-24.3 1.3-28.7 12.8-4.1 10.7.6 22.5 10.5 27.6 0 0 0 .1-.1.1-3 7.9.9 16.8 8.8 19.8s16.8-.9 19.8-8.8v-.1c1.9 1.6 4 2.9 6.5 3.8 11.7 4.5 24.9-1.3 29.4-13.1s-1.3-24.9-13.1-29.4c-6.7-2.5-14-1.7-19.8 1.8z" fill="none" opacity=".31" stroke="#fff" stroke-miterlimit="10" stroke-width="5"/><path d="m1666.5 108.4c-1.9-6.4-6.6-11.9-13.3-14.5-11.4-4.4-24.3 1.3-28.7 12.8-4.1 10.7.6 22.5 10.5 27.6 0 0 0 .1-.1.1-3 7.9.9 16.8 8.8 19.8s16.8-.9 19.8-8.8v-.1c1.9 1.6 4 2.9 6.5 3.8 11.7 4.5 24.9-1.3 29.4-13.1 4.5-11.7-1.3-24.9-13.1-29.4-6.7-2.5-14-1.7-19.8 1.8z" fill="none" opacity=".31" stroke="#fff" stroke-miterlimit="10" stroke-width="5"/><path d="m1736.3 125.4c-5.2 4.2-8.4 10.8-8.1 18 .4 12.2 10.7 21.8 23 21.4 11.4-.4 20.5-9.4 21.3-20.5h.1c8.5-.3 15.1-7.4 14.8-15.9s-7.4-15.1-15.9-14.8h-.1c.7-2.3 1.1-4.8 1-7.4-.5-12.5-11-22.3-23.5-21.9s-22.3 11-21.9 23.5c.1 7.3 3.8 13.7 9.3 17.6z" fill="none" opacity=".31" stroke="#fff" stroke-miterlimit="10" stroke-width="5"/><path d="m2526.3 1634.4c-5.2 4.2-8.4 10.8-8.1 18 .4 12.2 10.7 21.8 23 21.4 11.4-.4 20.5-9.4 21.3-20.5h.1c8.5-.3 15.1-7.4 14.8-15.9s-7.4-15.1-15.9-14.8h-.1c.7-2.3 1.1-4.8 1-7.4-.5-12.5-11-22.3-23.5-21.9-12.5.5-22.3 11-21.9 23.5.1 7.3 3.8 13.7 9.3 17.6z" fill="none" opacity=".31" stroke="#fff" stroke-miterlimit="10" stroke-width="5"/><path d="m2565.4 1714.2c-4.2-5.2-10.7-8.5-17.9-8.3-12.2.3-21.9 10.5-21.6 22.8.3 11.4 9.2 20.6 20.3 21.5v.1c.2 8.5 7.3 15.1 15.7 14.9 8.5-.2 15.1-7.3 14.9-15.7v-.1c2.3.7 4.8 1.1 7.4 1 12.5-.3 22.4-10.8 22.1-23.3s-10.8-22.4-23.3-22.1c-7.2.1-13.6 3.7-17.6 9.2z" fill="none" opacity=".31" stroke="#fff" stroke-miterlimit="10" stroke-width="5"/><path d="m338 1537.5c-17.4 0-31.5 14.1-31.5 31.5v.8c-1.5-.2-3-.3-4.5-.3-17.4 0-31.5 14.1-31.5 31.5 0 11.5 6.2 21.6 15.5 27.1-.3 1.2-.5 2.5-.5 3.9 0 9.1 7.4 16.5 16.5 16.5s16.5-7.4 16.5-16.5c0-1.3-.2-2.6-.5-3.9 9.3-5.5 15.5-15.6 15.5-27.1 0-.3 0-.6 0-.8 1.5.2 3 .3 4.5.3 17.4 0 31.5-14.1 31.5-31.5s-14.1-31.5-31.5-31.5z" fill="none" opacity=".31" stroke="#fff" stroke-miterlimit="10" stroke-width="5"/><path d="m2448.2 2349.5c0 15.5 12.5 28 28 28s28-12.5 28-28c0-4.5-1.1-8.8-3-12.6 11-3.8 18.9-14.2 18.9-26.5 0-15.5-12.5-28-28-28-13.6 0-24.9 9.7-27.4 22.5-8.1 1.2-14.3 8.2-14.3 16.6 0 4.1 1.4 7.8 3.9 10.7-3.9 4.8-6.1 10.8-6.1 17.3z" fill="none" opacity=".31" stroke="#fff" stroke-miterlimit="10" stroke-width="5"/><path d="m2542.8 2404.2c-2.5 3.9-4 8.5-4 13.4 0 13.7 11.1 24.8 24.8 24.8 12.8 0 23.4-9.7 24.7-22.2 6.5-2.4 11.1-8.6 11.1-15.9 0-9.3-7.6-16.9-16.9-16.9-5.2 0-9.8 2.3-12.9 6-1.9-.5-3.9-.7-6-.7-.3 0-.6 0-1 0 1.9-3.3 3-7.1 3-11.2 0-12.5-10.1-22.6-22.6-22.6s-22.6 10.1-22.6 22.6c.1 12.5 10.1 22.5 22.4 22.7z" fill="none" opacity=".31" stroke="#fff" stroke-miterlimit="10" stroke-width="5"/><path d="m2475.6 2450.7c-5.3 4.1-8.8 10.5-8.8 17.7 0 12.2 9.9 22.2 22.2 22.2 11.4 0 20.8-8.6 22-19.7h.1c8.5 0 15.3-6.9 15.3-15.3s-6.9-15.3-15.3-15.3h-.1c.8-2.3 1.2-4.8 1.2-7.4 0-12.6-10.2-22.7-22.7-22.7s-22.7 10.2-22.7 22.7c0 7.1 3.5 13.6 8.8 17.8z" fill="none" opacity=".31" stroke="#fff" stroke-miterlimit="10" stroke-width="5"/><path d="m2602.3 2300.1c.9-6.6-1.2-13.6-6.3-18.7-8.7-8.7-22.7-8.7-31.4 0-8.1 8.1-8.6 20.8-1.6 29.5 0 0-.1.1-.1.1-6 6-6 15.7 0 21.7s15.7 6 21.7 0c0 0 .1-.1.1-.1 1.1 2.2 2.5 4.3 4.4 6.1 8.9 8.9 23.3 8.9 32.1 0 8.9-8.9 8.9-23.3 0-32.1-5.2-5.2-12.2-7.4-18.9-6.5z" fill="none" opacity=".31" stroke="#fff" stroke-miterlimit="10" stroke-width="5"/><path d="m2535 2261c17.4 0 31.5-14.1 31.5-31.5 0-.3 0-.6 0-.8 1.5.2 3 .3 4.5.3 17.4 0 31.5-14.1 31.5-31.5 0-11.5-6.2-21.6-15.5-27.1.3-1.2.5-2.5.5-3.9 0-9.1-7.4-16.5-16.5-16.5s-16.5 7.4-16.5 16.5c0 1.3.2 2.6.5 3.9-9.3 5.5-15.5 15.6-15.5 27.1v.8c-1.5-.2-3-.3-4.5-.3-17.4 0-31.5 14.1-31.5 31.5s14.1 31.5 31.5 31.5z" fill="none" opacity=".31" stroke="#fff" stroke-miterlimit="10" stroke-width="5"/></svg>